<?xml version="1.0" encoding="UTF-8"?>
<!DOCTYPE svg PUBLIC "-//W3C//DTD SVG 1.1//EN" "http://www.w3.org/Graphics/SVG/1.1/DTD/svg11.dtd">
<svg xmlns="http://www.w3.org/2000/svg" version="1.1" width="429px" height="560px" style="shape-rendering:geometricPrecision; text-rendering:geometricPrecision; image-rendering:optimizeQuality; fill-rule:evenodd; clip-rule:evenodd" xmlns:xlink="http://www.w3.org/1999/xlink">
<g><path style="opacity:1" fill="#fefefd" d="M -0.5,-0.5 C 142.5,-0.5 285.5,-0.5 428.5,-0.5C 428.5,186.167 428.5,372.833 428.5,559.5C 285.5,559.5 142.5,559.5 -0.5,559.5C -0.5,372.833 -0.5,186.167 -0.5,-0.5 Z"/></g>
<g><path style="opacity:1" fill="#4a7a13" d="M 184.5,103.5 C 181.971,101.735 179.638,99.7345 177.5,97.5C 176.393,96.9781 175.226,96.6448 174,96.5C 166.688,99.9881 159.688,103.988 153,108.5C 152.265,110.871 151.432,113.205 150.5,115.5C 143.414,118.87 140.581,124.537 142,132.5C 141.5,133 141,133.5 140.5,134C 130.286,137.442 120.62,141.942 111.5,147.5C 112.226,151.26 110.893,153.927 107.5,155.5C 101.731,150.95 95.3977,147.45 88.5,145C 84.5,144.333 80.5,144.333 76.5,145C 73.705,149.38 70.705,149.547 67.5,145.5C 67.4837,140.529 67.1504,135.529 66.5,130.5C 58.8333,130.5 51.1667,130.5 43.5,130.5C 39.5468,127.721 35.7135,124.721 32,121.5C 27.8985,119.8 23.7318,118.3 19.5,117C 17.2542,115.743 15.9209,113.91 15.5,111.5C 19.7429,110.258 24.0762,109.258 28.5,108.5C 31.2911,105.791 33.2911,102.624 34.5,99C 40.5893,97.2187 44.9226,99.052 47.5,104.5C 49.2391,106.741 51.4058,108.408 54,109.5C 59.2486,104.803 65.4153,102.136 72.5,101.5C 80.0141,102.894 87.3475,104.894 94.5,107.5C 96.2141,104.58 96.7141,101.58 96,98.5C 98.7019,96.0929 101.202,93.5929 103.5,91C 101.715,88.6028 100.049,86.1028 98.5,83.5C 93.7869,79.613 88.9535,75.9463 84,72.5C 81.5407,69.9301 80.5407,66.9301 81,63.5C 83.1529,61.5561 85.6529,61.0561 88.5,62C 92.9666,66.3013 98.2999,67.6346 104.5,66C 109.514,64.7879 110.681,61.9546 108,57.5C 105.594,55.0167 103.427,52.35 101.5,49.5C 105.401,43.5989 109.568,37.9322 114,32.5C 115.667,28.8333 117.333,25.1667 119,21.5C 123.62,15.0968 128.12,8.59681 132.5,2C 136.625,1.14625 140.625,1.47958 144.5,3C 150.709,10.8774 158.376,16.8774 167.5,21C 180.688,25.9673 194.022,30.634 207.5,35C 217.542,34.8537 226.542,37.8537 234.5,44C 240.478,45.549 246.145,47.8823 251.5,51C 253.087,52.8448 254.421,54.8448 255.5,57C 254.132,59.5666 252.632,62.0666 251,64.5C 250.502,67.8168 250.335,71.1501 250.5,74.5C 244.319,72.716 238.652,69.8827 233.5,66C 226.676,64.0547 221.176,65.888 217,71.5C 213.864,79.7745 209.698,87.4412 204.5,94.5C 196.89,95.7134 190.223,98.7134 184.5,103.5 Z"/></g>
<g><path style="opacity:1" fill="#cee6c4" d="M 155.5,67.5 C 155.631,68.2389 155.464,68.9056 155,69.5C 150.154,67.6775 148.488,69.3442 150,74.5C 151.751,75.8088 153.251,75.4755 154.5,73.5C 155.583,74.365 155.749,75.365 155,76.5C 153.301,77.4061 151.467,77.7394 149.5,77.5C 147.568,74.8231 147.068,71.8231 148,68.5C 150.242,66.2854 152.742,65.9521 155.5,67.5 Z"/></g>
<g><path style="opacity:1" fill="#d7eec4" d="M 175.5,69.5 C 174.758,71.4258 173.758,73.2591 172.5,75C 174.119,75.2355 175.119,76.0689 175.5,77.5C 168.97,78.2145 167.97,76.3812 172.5,72C 171.692,71.6924 171.025,71.1924 170.5,70.5C 172.045,69.5481 173.712,69.2148 175.5,69.5 Z"/></g>
<g><path style="opacity:1" fill="#537528" d="M 155.5,67.5 C 157.483,67.1568 158.817,67.8235 159.5,69.5C 158.252,70.3339 157.585,71.6672 157.5,73.5C 157.833,74.8333 158.167,76.1667 158.5,77.5C 159.119,74.9682 160.119,72.6349 161.5,70.5C 161.376,69.8933 161.043,69.56 160.5,69.5C 165.5,68.1667 170.5,68.1667 175.5,69.5C 173.712,69.2148 172.045,69.5481 170.5,70.5C 171.025,71.1924 171.692,71.6924 172.5,72C 167.97,76.3812 168.97,78.2145 175.5,77.5C 167.336,78.6373 159.003,79.1373 150.5,79C 149.944,78.6174 149.611,78.1174 149.5,77.5C 151.467,77.7394 153.301,77.4061 155,76.5C 155.749,75.365 155.583,74.365 154.5,73.5C 153.251,75.4755 151.751,75.8088 150,74.5C 148.488,69.3442 150.154,67.6775 155,69.5C 155.464,68.9056 155.631,68.2389 155.5,67.5 Z"/></g>
<g><path style="opacity:1" fill="#d8f1be" d="M 162.5,69.5 C 164.036,71.0251 165.036,73.0251 165.5,75.5C 166.167,73.5 166.833,71.5 167.5,69.5C 168.48,72.0865 168.813,74.7531 168.5,77.5C 166.533,77.7394 164.699,77.4061 163,76.5C 162.503,74.1902 162.337,71.8568 162.5,69.5 Z"/></g>
<g><path style="opacity:1" fill="#d0e9c9" d="M 159.5,69.5 C 159.833,69.5 160.167,69.5 160.5,69.5C 161.043,69.56 161.376,69.8933 161.5,70.5C 160.119,72.6349 159.119,74.9682 158.5,77.5C 158.167,76.1667 157.833,74.8333 157.5,73.5C 157.585,71.6672 158.252,70.3339 159.5,69.5 Z"/></g>
<g><path style="opacity:1" fill="#c4d9ba" d="M 129.5,65.5 C 131.402,68.3373 132.069,71.6707 131.5,75.5C 136.779,76.227 138.779,74.227 137.5,69.5C 139.467,69.2606 141.301,69.5939 143,70.5C 143.497,72.8098 143.663,75.1432 143.5,77.5C 138.833,77.5 134.167,77.5 129.5,77.5C 129.5,73.5 129.5,69.5 129.5,65.5 Z"/></g>
<g><path style="opacity:1" fill="#f2c13c" d="M 184.5,105.5 C 185.223,108.822 186.057,112.155 187,115.5C 190.686,120.836 194.353,126.169 198,131.5C 203.668,136.926 208.835,142.759 213.5,149C 221.812,150.701 229.146,154.201 235.5,159.5C 239.167,163.813 241.5,168.813 242.5,174.5C 238.069,179.019 234.903,184.353 233,190.5C 229.674,194.826 226.007,198.826 222,202.5C 219.276,209.749 220.109,216.416 224.5,222.5C 220.205,227.062 216.372,232.062 213,237.5C 210.52,243.949 207.853,250.282 205,256.5C 202.947,262.878 201.447,269.378 200.5,276C 201.225,281.143 201.559,286.31 201.5,291.5C 201.657,292.873 201.49,294.207 201,295.5C 196.384,293.201 192.05,290.535 188,287.5C 182.782,288.201 178.948,290.867 176.5,295.5C 167.798,298.328 160.132,296.494 153.5,290C 151.782,289.654 150.115,289.154 148.5,288.5C 147.67,282.862 147.17,277.196 147,271.5C 144.307,262.582 141.141,253.915 137.5,245.5C 138.135,240.507 139.135,235.673 140.5,231C 140.167,229.5 139.833,228 139.5,226.5C 134.695,224.617 129.695,223.284 124.5,222.5C 122.594,218.595 119.927,215.095 116.5,212C 114.833,211.333 113.167,211.333 111.5,212C 110.167,213.733 108.667,215.233 107,216.5C 106.228,216.355 105.561,216.022 105,215.5C 104.333,213.833 104.333,212.167 105,210.5C 111.201,208.299 114.868,203.966 116,197.5C 116.181,191.105 116.348,184.772 116.5,178.5C 115.076,172.018 113.409,165.685 111.5,159.5C 109.821,159.715 108.821,159.048 108.5,157.5C 109.496,157.586 110.329,157.252 111,156.5C 112.439,153.397 114.273,150.564 116.5,148C 120.745,146.089 124.745,143.755 128.5,141C 133.962,140.736 138.795,138.903 143,135.5C 144.072,130.868 145.072,126.201 146,121.5C 150.997,119.829 153.831,116.329 154.5,111C 155.272,109.779 156.272,108.779 157.5,108C 163.304,105.117 168.971,101.951 174.5,98.5C 176.984,100.483 179.317,102.65 181.5,105C 182.448,105.483 183.448,105.649 184.5,105.5 Z"/></g>
<g><path style="opacity:1" fill="#50712d" d="M 43.5,130.5 C 51.1667,130.5 58.8333,130.5 66.5,130.5C 67.1504,135.529 67.4837,140.529 67.5,145.5C 66.5041,145.586 65.6708,145.252 65,144.5C 64.0643,141.208 64.5643,138.208 66.5,135.5C 66.0814,134.328 65.4147,133.328 64.5,132.5C 57.3448,133.032 50.3448,132.365 43.5,130.5 Z"/></g>
<g><path style="opacity:1" fill="#130f05" d="M 184.5,103.5 C 184.5,104.167 184.5,104.833 184.5,105.5C 183.448,105.649 182.448,105.483 181.5,105C 179.317,102.65 176.984,100.483 174.5,98.5C 168.971,101.951 163.304,105.117 157.5,108C 156.272,108.779 155.272,109.779 154.5,111C 153.831,116.329 150.997,119.829 146,121.5C 145.072,126.201 144.072,130.868 143,135.5C 138.795,138.903 133.962,140.736 128.5,141C 124.745,143.755 120.745,146.089 116.5,148C 114.273,150.564 112.439,153.397 111,156.5C 110.329,157.252 109.496,157.586 108.5,157.5C 108.167,156.833 107.833,156.167 107.5,155.5C 110.893,153.927 112.226,151.26 111.5,147.5C 120.62,141.942 130.286,137.442 140.5,134C 141,133.5 141.5,133 142,132.5C 140.581,124.537 143.414,118.87 150.5,115.5C 151.432,113.205 152.265,110.871 153,108.5C 159.688,103.988 166.688,99.9881 174,96.5C 175.226,96.6448 176.393,96.9781 177.5,97.5C 179.638,99.7345 181.971,101.735 184.5,103.5 Z"/></g>
<g><path style="opacity:1" fill="#491a12" d="M 157.5,191.5 C 157.158,192.338 156.492,192.672 155.5,192.5C 155.711,190.576 156.377,190.243 157.5,191.5 Z"/></g>
<g><path style="opacity:1" fill="#36230e" d="M 165.5,195.5 C 165.875,200.495 163.542,202.495 158.5,201.5C 158.5,198.167 158.5,194.833 158.5,191.5C 158.56,190.957 158.893,190.624 159.5,190.5C 160.281,191.729 160.781,193.062 161,194.5C 162.711,193.419 164.211,193.752 165.5,195.5 Z"/></g>
<g><path style="opacity:1" fill="#261308" d="M 174.5,193.5 C 174.833,193.5 175.167,193.5 175.5,193.5C 179.243,193.459 179.41,194.126 176,195.5C 175.505,197.473 175.338,199.473 175.5,201.5C 175.167,201.5 174.833,201.5 174.5,201.5C 174.5,198.833 174.5,196.167 174.5,193.5 Z"/></g>
<g><path style="opacity:1" fill="#361d11" d="M 172.5,195.5 C 171.88,197.977 170.88,197.977 169.5,195.5C 168.571,196.689 168.238,198.022 168.5,199.5C 169.833,199.5 171.167,199.5 172.5,199.5C 171.249,201.561 169.582,201.894 167.5,200.5C 166.691,198.929 166.357,197.262 166.5,195.5C 168.5,192.833 170.5,192.833 172.5,195.5 Z"/></g>
<g><path style="opacity:1" fill="#947b4c" d="M 174.5,193.5 C 174.5,196.167 174.5,198.833 174.5,201.5C 174.167,201.5 173.833,201.5 173.5,201.5C 173.754,199.599 173.42,198.933 172.5,199.5C 171.167,199.5 169.833,199.5 168.5,199.5C 168.238,198.022 168.571,196.689 169.5,195.5C 170.88,197.977 171.88,197.977 172.5,195.5C 173.167,194.833 173.833,194.167 174.5,193.5 Z"/></g>
<g><path style="opacity:1" fill="#3d1f13" d="M 154.5,199.5 C 152.721,201.344 150.388,202.01 147.5,201.5C 147.5,198.167 147.5,194.833 147.5,191.5C 147.81,190.262 148.31,190.262 149,191.5C 149.497,194.146 149.664,196.813 149.5,199.5C 151.167,199.5 152.833,199.5 154.5,199.5 Z"/></g>
<g><path style="opacity:1" fill="#382614" d="M 188.5,195.5 C 188.5,197.5 188.5,199.5 188.5,201.5C 186.833,201.5 185.167,201.5 183.5,201.5C 182.095,198.586 183.095,196.753 186.5,196C 182.777,195.566 182.61,194.732 186,193.5C 187.301,193.639 188.134,194.305 188.5,195.5 Z"/></g>
<g><path style="opacity:1" fill="#dec16c" d="M 147.5,191.5 C 147.5,194.833 147.5,198.167 147.5,201.5C 150.388,202.01 152.721,201.344 154.5,199.5C 154.833,199.5 155.167,199.5 155.5,199.5C 155.369,200.376 155.702,201.043 156.5,201.5C 156.833,200.167 157.167,198.833 157.5,197.5C 157.415,195.667 156.748,194.334 155.5,193.5C 155.5,193.167 155.5,192.833 155.5,192.5C 156.492,192.672 157.158,192.338 157.5,191.5C 157.833,191.5 158.167,191.5 158.5,191.5C 158.5,194.833 158.5,198.167 158.5,201.5C 163.542,202.495 165.875,200.495 165.5,195.5C 165.833,195.5 166.167,195.5 166.5,195.5C 166.357,197.262 166.691,198.929 167.5,200.5C 169.582,201.894 171.249,201.561 172.5,199.5C 173.42,198.933 173.754,199.599 173.5,201.5C 164.584,202.471 155.584,202.804 146.5,202.5C 146.185,198.629 146.518,194.962 147.5,191.5 Z"/></g>
<g><path style="opacity:1" fill="#321914" d="M 155.5,193.5 C 156.748,194.334 157.415,195.667 157.5,197.5C 157.167,198.833 156.833,200.167 156.5,201.5C 155.702,201.043 155.369,200.376 155.5,199.5C 155.5,197.5 155.5,195.5 155.5,193.5 Z"/></g>
<g><path style="opacity:1" fill="#ceb96f" d="M 160.5,195.5 C 161.5,195.5 162.5,195.5 163.5,195.5C 163.5,196.833 163.5,198.167 163.5,199.5C 162.5,199.5 161.5,199.5 160.5,199.5C 160.5,198.167 160.5,196.833 160.5,195.5 Z"/></g>
<g><path style="opacity:1" fill="#cba247" d="M 188.5,195.5 C 188.134,194.305 187.301,193.639 186,193.5C 182.61,194.732 182.777,195.566 186.5,196C 183.095,196.753 182.095,198.586 183.5,201.5C 181.787,202.635 181.12,204.302 181.5,206.5C 180.5,206.5 179.5,206.5 178.5,206.5C 178.69,204.041 177.69,202.374 175.5,201.5C 175.338,199.473 175.505,197.473 176,195.5C 179.41,194.126 179.243,193.459 175.5,193.5C 177.231,192.793 178.897,191.793 180.5,190.5C 183.614,192.113 186.947,193.113 190.5,193.5C 191.583,194.365 191.749,195.365 191,196.5C 190.329,195.748 189.496,195.414 188.5,195.5 Z"/></g>
<g><path style="opacity:1" fill="#140e09" d="M 242.5,174.5 C 242.5,174.833 242.5,175.167 242.5,175.5C 242.804,176.15 243.137,176.817 243.5,177.5C 239.9,181.7 237.067,186.367 235,191.5C 231.38,196.16 227.714,200.826 224,205.5C 222.805,211.544 223.638,217.211 226.5,222.5C 214.95,238.437 206.95,256.104 202.5,275.5C 203.355,281.134 203.688,286.801 203.5,292.5C 202.833,292.167 202.167,291.833 201.5,291.5C 201.559,286.31 201.225,281.143 200.5,276C 201.447,269.378 202.947,262.878 205,256.5C 207.853,250.282 210.52,243.949 213,237.5C 216.372,232.062 220.205,227.062 224.5,222.5C 220.109,216.416 219.276,209.749 222,202.5C 226.007,198.826 229.674,194.826 233,190.5C 234.903,184.353 238.069,179.019 242.5,174.5 Z"/></g>
<g><path style="opacity:1" fill="#f1da12" d="M 321.5,196.5 C 322.833,196.5 324.167,196.5 325.5,196.5C 325.5,197.5 325.5,198.5 325.5,199.5C 329.29,202.083 333.457,204.083 338,205.5C 338.471,210.844 338.971,216.178 339.5,221.5C 336.017,221.691 332.684,222.357 329.5,223.5C 329.413,238.467 329.246,253.467 329,268.5C 331.42,270.839 332.92,273.672 333.5,277C 332.5,286.158 332,295.325 332,304.5C 333.378,308.874 335.211,313.041 337.5,317C 340.952,317.885 344.286,318.718 347.5,319.5C 347.203,322.559 345.87,325.059 343.5,327C 336.586,328.472 330.253,330.972 324.5,334.5C 324.377,337.374 323.377,339.874 321.5,342C 316.239,343.217 310.906,344.217 305.5,345C 300.615,346.883 295.948,349.216 291.5,352C 289.312,355.851 286.145,358.685 282,360.5C 278.466,365.601 274.966,370.601 271.5,375.5C 270.504,375.586 269.671,375.252 269,374.5C 267.515,369.895 266.349,365.228 265.5,360.5C 266.53,357.588 268.03,354.921 270,352.5C 270.656,344.547 272.323,336.88 275,329.5C 280.157,319.357 284.824,309.024 289,298.5C 287.756,289.913 287.423,281.246 288,272.5C 290.258,265.317 293.591,258.651 298,252.5C 296.185,242.74 298.019,233.74 303.5,225.5C 307.605,220.973 311.939,216.64 316.5,212.5C 317.621,206.943 319.288,201.609 321.5,196.5 Z"/></g>
<g><path style="opacity:1" fill="#80c12c" d="M 340.5,223.5 C 344.479,229.479 349.479,234.479 355.5,238.5C 357.415,240.071 358.415,242.071 358.5,244.5C 362.98,244.985 365.98,247.319 367.5,251.5C 372.844,251.334 378.177,251.501 383.5,252C 385.888,253.861 388.554,255.194 391.5,256C 395.14,262.313 400.473,266.313 407.5,268C 414.918,276.585 418.585,286.585 418.5,298C 416.489,302.217 415.489,306.717 415.5,311.5C 413.821,311.285 412.821,311.952 412.5,313.5C 405.112,319.629 396.779,321.129 387.5,318C 382.371,315.298 377.204,312.798 372,310.5C 366.261,312.37 360.928,315.036 356,318.5C 350.55,317.284 345.05,316.118 339.5,315C 338.297,312.095 336.964,309.262 335.5,306.5C 335.5,298.167 335.5,289.833 335.5,281.5C 336.476,275.695 334.976,270.695 331,266.5C 331.258,252.8 331.425,239.133 331.5,225.5C 334.426,224.539 337.426,223.873 340.5,223.5 Z"/></g>
<g><path style="opacity:1" fill="#2b0e06" d="M 124.5,222.5 C 129.695,223.284 134.695,224.617 139.5,226.5C 139.833,228 140.167,229.5 140.5,231C 139.135,235.673 138.135,240.507 137.5,245.5C 141.141,253.915 144.307,262.582 147,271.5C 147.17,277.196 147.67,282.862 148.5,288.5C 150.115,289.154 151.782,289.654 153.5,290C 160.132,296.494 167.798,298.328 176.5,295.5C 178.948,290.867 182.782,288.201 188,287.5C 192.05,290.535 196.384,293.201 201,295.5C 201.49,294.207 201.657,292.873 201.5,291.5C 202.167,291.833 202.833,292.167 203.5,292.5C 203.238,293.978 203.571,295.311 204.5,296.5C 206.919,296.914 208.919,297.914 210.5,299.5C 212.023,301.867 213.356,304.367 214.5,307C 214.164,308.03 213.497,308.53 212.5,308.5C 212.342,304.828 210.675,301.995 207.5,300C 200.738,298.48 194.738,295.48 189.5,291C 187.613,290.22 185.946,290.387 184.5,291.5C 181.313,294.449 177.646,296.949 173.5,299C 170.518,299.498 167.518,299.665 164.5,299.5C 161.899,298.199 159.232,296.866 156.5,295.5C 153.65,293.012 150.317,291.345 146.5,290.5C 145.833,284.012 145.167,277.679 144.5,271.5C 143.686,269.369 143.186,267.036 143,264.5C 140.271,259.942 137.771,255.276 135.5,250.5C 135.413,245.463 135.746,240.463 136.5,235.5C 137.167,235.5 137.5,235.167 137.5,234.5C 138.468,232.393 138.802,230.059 138.5,227.5C 132.814,226.608 127.147,225.608 121.5,224.5C 121.973,223.094 122.973,222.427 124.5,222.5 Z"/></g>
<g><path style="opacity:1" fill="#c32033" d="M 136.5,235.5 C 135.746,240.463 135.413,245.463 135.5,250.5C 134.352,246.019 134.185,241.352 135,236.5C 135.383,235.944 135.883,235.611 136.5,235.5 Z"/></g>
<g><path style="opacity:1" fill="#4a7a13" d="M 242.5,175.5 C 245.28,175.807 247.78,176.807 250,178.5C 258.282,175.207 266.115,176.041 273.5,181C 278.5,181.333 283.5,181.667 288.5,182C 290.421,182.36 292.088,183.194 293.5,184.5C 298.578,194.225 306.578,198.225 317.5,196.5C 317.437,201.754 316.27,206.754 314,211.5C 309.616,215.261 305.45,219.261 301.5,223.5C 299.417,226.664 297.584,229.997 296,233.5C 297.473,245.012 294.806,255.345 288,264.5C 284.867,275.445 284.7,286.445 287.5,297.5C 282.671,307.42 277.838,317.42 273,327.5C 270.194,335.196 268.527,343.196 268,351.5C 266.147,353.903 264.314,356.236 262.5,358.5C 260.254,357.545 257.921,356.878 255.5,356.5C 253.057,349.365 249.057,343.198 243.5,338C 240.328,336.248 237.328,334.248 234.5,332C 229.438,329.458 225.105,330.292 221.5,334.5C 219.295,332.637 217.961,330.303 217.5,327.5C 215.143,327.663 212.81,327.497 210.5,327C 208.651,325.32 206.651,323.82 204.5,322.5C 206.606,316.322 210.606,311.989 216.5,309.5C 216.931,308.707 217.265,307.873 217.5,307C 215.63,303.967 213.296,301.467 210.5,299.5C 208.919,297.914 206.919,296.914 204.5,296.5C 203.571,295.311 203.238,293.978 203.5,292.5C 203.688,286.801 203.355,281.134 202.5,275.5C 206.95,256.104 214.95,238.437 226.5,222.5C 223.638,217.211 222.805,211.544 224,205.5C 227.714,200.826 231.38,196.16 235,191.5C 237.067,186.367 239.9,181.7 243.5,177.5C 243.137,176.817 242.804,176.15 242.5,175.5 Z"/></g>
<g><path style="opacity:1" fill="#bcd0a3" d="M 267.5,247.5 C 271.165,248.652 274.831,248.819 278.5,248C 278.658,249.977 278.825,252.143 279,254.5C 276.224,256.14 274.224,255.473 273,252.5C 272.051,255.2 270.217,256.033 267.5,255C 266.221,252.502 266.221,250.002 267.5,247.5 Z"/></g>
<g><path style="opacity:1" fill="#c6deb2" d="M 228.5,244.5 C 230.833,244.5 233.167,244.5 235.5,244.5C 235.665,247.85 235.498,251.183 235,254.5C 232.959,255.423 230.792,255.756 228.5,255.5C 228.5,251.833 228.5,248.167 228.5,244.5 Z"/></g>
<g><path style="opacity:1" fill="#566e36" d="M 230.5,250.5 C 232.346,250.222 233.68,250.889 234.5,252.5C 233.311,253.429 231.978,253.762 230.5,253.5C 230.5,252.5 230.5,251.5 230.5,250.5 Z"/></g>
<g><path style="opacity:1" fill="#ccdeb6" d="M 253.5,247.5 C 256.238,246.965 258.072,247.965 259,250.5C 260.746,247.019 262.913,246.685 265.5,249.5C 264.284,250.096 262.951,250.263 261.5,250C 260.663,251.011 260.33,252.178 260.5,253.5C 261.93,253.579 263.264,253.246 264.5,252.5C 265.521,253.002 265.688,253.668 265,254.5C 262.224,256.14 260.224,255.473 259,252.5C 258.517,253.448 258.351,254.448 258.5,255.5C 256.5,255.5 254.5,255.5 252.5,255.5C 252.5,254.167 252.5,252.833 252.5,251.5C 254.103,251.688 255.437,251.188 256.5,250C 255.451,249.508 254.451,249.674 253.5,250.5C 252.438,249.575 252.438,248.575 253.5,247.5 Z"/></g>
<g><path style="opacity:1" fill="#cde0b7" d="M 239.5,247.5 C 243.199,248.37 246.699,248.37 250,247.5C 250.499,251.152 250.665,254.818 250.5,258.5C 246.507,256.748 242.174,255.748 237.5,255.5C 237.241,252.52 238.574,250.687 241.5,250C 240.244,249.583 239.577,248.75 239.5,247.5 Z"/></g>
<g><path style="opacity:1" fill="#657e32" d="M 246.5,249.5 C 249.861,250.203 250.194,251.537 247.5,253.5C 245.358,252.563 245.024,251.23 246.5,249.5 Z"/></g>
<g><path style="opacity:1" fill="#c53130" d="M 123.5,260.5 C 121.586,263.684 120.92,267.351 121.5,271.5C 121.167,271.5 120.833,271.5 120.5,271.5C 119.833,256.833 119.167,256.833 118.5,271.5C 117.833,271.5 117.167,271.5 116.5,271.5C 116.5,268.833 116.5,266.167 116.5,263.5C 112.5,263.5 108.5,263.5 104.5,263.5C 104.5,266.167 104.5,268.833 104.5,271.5C 104.167,271.5 103.833,271.5 103.5,271.5C 103.663,269.143 103.497,266.81 103,264.5C 101.333,263.167 99.6667,263.167 98,264.5C 97.5034,266.81 97.3367,269.143 97.5,271.5C 96.8333,270.833 96.1667,270.167 95.5,269.5C 95.631,268.761 95.4643,268.094 95,267.5C 92.0671,270.34 90.2338,269.674 89.5,265.5C 90.3547,261.476 92.1881,260.809 95,263.5C 95.3988,263.272 95.5654,262.938 95.5,262.5C 101.868,262.83 108.202,262.496 114.5,261.5C 117.405,259.368 120.405,259.034 123.5,260.5 Z"/></g>
<g><path style="opacity:1" fill="#f9c4bb" d="M 95.5,261.5 C 95.5,261.833 95.5,262.167 95.5,262.5C 95.5654,262.938 95.3988,263.272 95,263.5C 92.1881,260.809 90.3547,261.476 89.5,265.5C 90.2338,269.674 92.0671,270.34 95,267.5C 95.4643,268.094 95.631,268.761 95.5,269.5C 95.5,270.167 95.5,270.833 95.5,271.5C 88.6693,271.384 86.6693,268.051 89.5,261.5C 91.5156,260.306 93.5156,260.306 95.5,261.5 Z"/></g>
<g><path style="opacity:1" fill="#f8bcb2" d="M 116.5,271.5 C 114.692,270.082 114.025,268.082 114.5,265.5C 113.5,265.5 112.5,265.5 111.5,265.5C 110.833,273.5 110.167,273.5 109.5,265.5C 108.5,265.5 107.5,265.5 106.5,265.5C 106.975,268.082 106.308,270.082 104.5,271.5C 104.5,268.833 104.5,266.167 104.5,263.5C 108.5,263.5 112.5,263.5 116.5,263.5C 116.5,266.167 116.5,268.833 116.5,271.5 Z"/></g>
<g><path style="opacity:1" fill="#f70e12" d="M 64.5,273.5 C 60.5848,269.174 60.5848,264.84 64.5,260.5C 67.9103,260.616 69.2436,258.95 68.5,255.5C 74.2147,255.173 74.8814,256.673 70.5,260C 71.6651,261.084 72.9984,261.917 74.5,262.5C 75.5505,261.115 76.8839,260.115 78.5,259.5C 79.8175,261.751 81.4842,263.751 83.5,265.5C 80.529,267.797 78.8624,270.797 78.5,274.5C 76.8333,274.5 75.1667,274.5 73.5,274.5C 73.5,275.5 73.5,276.5 73.5,277.5C 72.1266,277.657 70.7932,277.49 69.5,277C 68.2107,275.198 66.5441,274.031 64.5,273.5 Z"/></g>
<g><path style="opacity:1" fill="#f3bbc6" d="M 103.5,271.5 C 101.5,271.5 99.5,271.5 97.5,271.5C 97.3367,269.143 97.5034,266.81 98,264.5C 99.6667,263.167 101.333,263.167 103,264.5C 103.497,266.81 103.663,269.143 103.5,271.5 Z"/></g>
<g><path style="opacity:1" fill="#e7b7ac" d="M 123.5,260.5 C 124.08,264.649 123.414,268.316 121.5,271.5C 120.92,267.351 121.586,263.684 123.5,260.5 Z"/></g>
<g><path style="opacity:1" fill="#ffb3b8" d="M 120.5,271.5 C 119.833,271.5 119.167,271.5 118.5,271.5C 119.167,256.833 119.833,256.833 120.5,271.5 Z"/></g>
<g><path style="opacity:1" fill="#f90d13" d="M 137.5,234.5 C 137.5,235.167 137.167,235.5 136.5,235.5C 135.883,235.611 135.383,235.944 135,236.5C 134.185,241.352 134.352,246.019 135.5,250.5C 137.771,255.276 140.271,259.942 143,264.5C 143.186,267.036 143.686,269.369 144.5,271.5C 144.334,278.175 144.5,284.842 145,291.5C 148.956,292.658 152.789,293.992 156.5,295.5C 159.232,296.866 161.899,298.199 164.5,299.5C 169.754,300.213 175.087,300.546 180.5,300.5C 180.167,297.5 181.5,296.167 184.5,296.5C 184.5,294.833 184.5,293.167 184.5,291.5C 185.946,290.387 187.613,290.22 189.5,291C 194.738,295.48 200.738,298.48 207.5,300C 210.675,301.995 212.342,304.828 212.5,308.5C 209.609,310.884 206.776,313.551 204,316.5C 203.76,318.852 202.927,320.852 201.5,322.5C 195.139,322.603 188.806,323.103 182.5,324C 177.568,326.278 172.735,328.778 168,331.5C 163.946,328.728 159.446,326.895 154.5,326C 147.975,324.843 142.308,326.509 137.5,331C 133.244,332.807 128.911,334.307 124.5,335.5C 124.438,327.625 123.271,319.959 121,312.5C 116.147,308.429 112.647,303.429 110.5,297.5C 106.305,296.768 102.305,295.435 98.5,293.5C 96.6122,290.063 95.6122,286.396 95.5,282.5C 92.911,282.539 90.911,281.539 89.5,279.5C 89.0472,278.542 88.3805,277.708 87.5,277C 90.0351,276.383 92.3684,276.883 94.5,278.5C 95.3857,277.675 95.719,276.675 95.5,275.5C 94.0222,275.762 92.6888,275.429 91.5,274.5C 92.9014,273.479 94.2347,272.479 95.5,271.5C 95.5,270.833 95.5,270.167 95.5,269.5C 96.1667,270.167 96.8333,270.833 97.5,271.5C 99.5,271.5 101.5,271.5 103.5,271.5C 103.833,271.5 104.167,271.5 104.5,271.5C 106.308,270.082 106.975,268.082 106.5,265.5C 107.5,265.5 108.5,265.5 109.5,265.5C 110.167,273.5 110.833,273.5 111.5,265.5C 112.5,265.5 113.5,265.5 114.5,265.5C 114.025,268.082 114.692,270.082 116.5,271.5C 117.167,271.5 117.833,271.5 118.5,271.5C 119.167,271.5 119.833,271.5 120.5,271.5C 120.833,271.5 121.167,271.5 121.5,271.5C 123.414,268.316 124.08,264.649 123.5,260.5C 120.405,259.034 117.405,259.368 114.5,261.5C 108.202,262.496 101.868,262.83 95.5,262.5C 95.5,262.167 95.5,261.833 95.5,261.5C 94.2529,259.822 92.5862,258.489 90.5,257.5C 89.9907,253.249 91.9907,250.583 96.5,249.5C 97.5237,250.853 98.857,251.52 100.5,251.5C 99.8505,249.523 99.8505,247.69 100.5,246C 101.424,244.189 102.257,244.355 103,246.5C 104.1,242.778 106.266,239.944 109.5,238C 111.757,237.888 113.924,238.388 116,239.5C 118.36,238.22 120.86,237.553 123.5,237.5C 123.573,233.342 125.573,230.676 129.5,229.5C 130.852,230.518 131.852,231.851 132.5,233.5C 133.452,231.955 133.785,230.288 133.5,228.5C 134.833,228.5 136.167,228.5 137.5,228.5C 137.5,230.5 137.5,232.5 137.5,234.5 Z"/></g>
<g><path style="opacity:1" fill="#edc6b3" d="M 127.5,263.5 C 132.668,264.339 133.668,266.839 130.5,271C 127.094,272.24 125.427,271.073 125.5,267.5C 125.803,265.886 126.47,264.552 127.5,263.5 Z"/></g>
<g><path style="opacity:1" fill="#d51832" d="M 127.5,265.5 C 130.861,266.203 131.194,267.537 128.5,269.5C 127.571,268.311 127.238,266.978 127.5,265.5 Z"/></g>
<g><path style="opacity:1" fill="#e7171a" d="M 121.5,224.5 C 127.147,225.608 132.814,226.608 138.5,227.5C 138.802,230.059 138.468,232.393 137.5,234.5C 137.5,232.5 137.5,230.5 137.5,228.5C 136.167,228.5 134.833,228.5 133.5,228.5C 133.785,230.288 133.452,231.955 132.5,233.5C 131.852,231.851 130.852,230.518 129.5,229.5C 125.573,230.676 123.573,233.342 123.5,237.5C 120.86,237.553 118.36,238.22 116,239.5C 113.924,238.388 111.757,237.888 109.5,238C 106.266,239.944 104.1,242.778 103,246.5C 102.257,244.355 101.424,244.189 100.5,246C 99.8505,247.69 99.8505,249.523 100.5,251.5C 98.857,251.52 97.5237,250.853 96.5,249.5C 91.9907,250.583 89.9907,253.249 90.5,257.5C 92.5862,258.489 94.2529,259.822 95.5,261.5C 93.5156,260.306 91.5156,260.306 89.5,261.5C 86.6693,268.051 88.6693,271.384 95.5,271.5C 94.2347,272.479 92.9014,273.479 91.5,274.5C 92.6888,275.429 94.0222,275.762 95.5,275.5C 95.719,276.675 95.3857,277.675 94.5,278.5C 92.3684,276.883 90.0351,276.383 87.5,277C 88.3805,277.708 89.0472,278.542 89.5,279.5C 83.4092,277.546 77.7425,278.213 72.5,281.5C 69.5271,279.194 66.8605,276.527 64.5,273.5C 66.5441,274.031 68.2107,275.198 69.5,277C 70.7932,277.49 72.1266,277.657 73.5,277.5C 73.5,276.5 73.5,275.5 73.5,274.5C 75.1667,274.5 76.8333,274.5 78.5,274.5C 78.8624,270.797 80.529,267.797 83.5,265.5C 81.4842,263.751 79.8175,261.751 78.5,259.5C 76.8839,260.115 75.5505,261.115 74.5,262.5C 72.9984,261.917 71.6651,261.084 70.5,260C 74.8814,256.673 74.2147,255.173 68.5,255.5C 69.2436,258.95 67.9103,260.616 64.5,260.5C 65.9366,258.473 67.2699,256.306 68.5,254C 70.1667,253.333 71.8333,253.333 73.5,254C 77.2584,256.869 81.2584,257.202 85.5,255C 88.4835,252.174 91.8168,249.841 95.5,248C 96.6498,245.538 97.9831,243.204 99.5,241C 105.11,238.183 110.777,235.517 116.5,233C 119.262,230.754 120.929,227.921 121.5,224.5 Z"/></g>
<g><path style="opacity:1" fill="#bbdf91" d="M 351.5,277.5 C 356.193,277.54 360.859,277.873 365.5,278.5C 365.5,281.5 365.5,284.5 365.5,287.5C 363.857,287.48 362.524,288.147 361.5,289.5C 360.748,285.808 359.914,282.142 359,278.5C 358.683,280.301 358.016,280.634 357,279.5C 355.842,290.147 355.009,290.147 354.5,279.5C 352.821,279.715 351.821,279.048 351.5,277.5 Z"/></g>
<g><path style="opacity:1" fill="#d0ebaf" d="M 385.5,289.5 C 379.556,288.796 373.556,288.796 367.5,289.5C 367.5,287.167 367.5,284.833 367.5,282.5C 368.451,283.919 368.784,285.585 368.5,287.5C 369.5,287.5 370.5,287.5 371.5,287.5C 371.714,285.856 371.38,284.356 370.5,283C 371.025,282.308 371.692,281.808 372.5,281.5C 373.814,290.741 374.48,290.741 374.5,281.5C 377.909,281.249 381.242,281.583 384.5,282.5C 385.474,284.743 385.808,287.076 385.5,289.5 Z"/></g>
<g><path style="opacity:1" fill="#add576" d="M 385.5,289.5 C 385.808,287.076 385.474,284.743 384.5,282.5C 381.242,281.583 377.909,281.249 374.5,281.5C 374.48,290.741 373.814,290.741 372.5,281.5C 371.692,281.808 371.025,282.308 370.5,283C 371.38,284.356 371.714,285.856 371.5,287.5C 370.5,287.5 369.5,287.5 368.5,287.5C 368.784,285.585 368.451,283.919 367.5,282.5C 368.263,281.732 369.263,281.232 370.5,281C 377.977,279.989 385.31,280.489 392.5,282.5C 393.474,284.743 393.808,287.076 393.5,289.5C 390.833,289.5 388.167,289.5 385.5,289.5 Z"/></g>
<g><path style="opacity:1" fill="#c82328" d="M 144.5,271.5 C 145.167,277.679 145.833,284.012 146.5,290.5C 150.317,291.345 153.65,293.012 156.5,295.5C 152.789,293.992 148.956,292.658 145,291.5C 144.5,284.842 144.334,278.175 144.5,271.5 Z"/></g>
<g><path style="opacity:1" fill="#cd1d27" d="M 184.5,291.5 C 184.5,293.167 184.5,294.833 184.5,296.5C 181.5,296.167 180.167,297.5 180.5,300.5C 175.087,300.546 169.754,300.213 164.5,299.5C 167.518,299.665 170.518,299.498 173.5,299C 177.646,296.949 181.313,294.449 184.5,291.5 Z"/></g>
<g><path style="opacity:1" fill="#89b16e" d="M 335.5,281.5 C 335.5,289.833 335.5,298.167 335.5,306.5C 334.62,304.863 333.954,303.03 333.5,301C 334.113,294.356 334.779,287.856 335.5,281.5 Z"/></g>
<g><path style="opacity:1" fill="#310b09" d="M 89.5,279.5 C 90.911,281.539 92.911,282.539 95.5,282.5C 95.6122,286.396 96.6122,290.063 98.5,293.5C 102.305,295.435 106.305,296.768 110.5,297.5C 112.647,303.429 116.147,308.429 121,312.5C 123.271,319.959 124.438,327.625 124.5,335.5C 128.911,334.307 133.244,332.807 137.5,331C 142.308,326.509 147.975,324.843 154.5,326C 159.446,326.895 163.946,328.728 168,331.5C 172.735,328.778 177.568,326.278 182.5,324C 188.806,323.103 195.139,322.603 201.5,322.5C 201.167,323.167 200.833,323.833 200.5,324.5C 189.472,323.689 179.805,326.856 171.5,334C 169.19,334.497 166.857,334.663 164.5,334.5C 163.243,333.182 161.909,331.849 160.5,330.5C 157.036,329.746 153.703,328.746 150.5,327.5C 143.817,331.34 136.817,334.507 129.5,337C 127.5,337.667 125.5,337.667 123.5,337C 122.036,330.965 121.203,324.799 121,318.5C 119.063,314.565 116.396,311.232 113,308.5C 112.064,304.793 110.231,301.626 107.5,299C 99.9696,299.174 95.4696,295.674 94,288.5C 90.8395,283.71 86.3395,281.044 80.5,280.5C 77.954,281.057 75.6207,282.057 73.5,283.5C 73.1667,282.833 72.8333,282.167 72.5,281.5C 77.7425,278.213 83.4092,277.546 89.5,279.5 Z"/></g>
<g><path style="opacity:1" fill="#decd30" d="M 322.5,314.5 C 321.883,314.611 321.383,314.944 321,315.5C 321.046,317.313 320.88,318.979 320.5,320.5C 322.459,323.236 324.125,323.069 325.5,320C 324.907,318.118 323.573,317.118 321.5,317C 322.833,316.667 324.167,316.333 325.5,316C 324.944,315.617 324.611,315.117 324.5,314.5C 325.496,314.414 326.329,314.748 327,315.5C 330.138,321.889 328.138,325.223 321,325.5C 318.171,324.477 315.671,323.143 313.5,321.5C 312.833,321.833 312.167,322.167 311.5,322.5C 311.663,320.143 311.497,317.81 311,315.5C 310.586,315.043 310.086,314.709 309.5,314.5C 308.5,315.833 307.5,315.833 306.5,314.5C 305.2,317.309 305.2,319.976 306.5,322.5C 306.053,325.524 305.22,325.857 304,323.5C 303.667,324.833 303.333,326.167 303,327.5C 302.517,326.552 302.351,325.552 302.5,324.5C 300.821,324.715 299.821,324.048 299.5,322.5C 301.167,322.5 302.833,322.5 304.5,322.5C 304.802,319.941 304.468,317.607 303.5,315.5C 302.791,314.596 301.791,314.263 300.5,314.5C 302.216,313.029 304.216,312.029 306.5,311.5C 306.62,312.586 307.287,313.253 308.5,313.5C 309.713,313.253 310.38,312.586 310.5,311.5C 312.5,311.5 314.5,311.5 316.5,311.5C 316.187,308.753 316.52,306.086 317.5,303.5C 318.585,307.499 320.252,311.165 322.5,314.5 Z"/></g>
<g><path style="opacity:1" fill="#280e00" d="M 291.5,312.5 C 292.568,311.566 293.901,311.232 295.5,311.5C 296.303,312.423 296.47,313.423 296,314.5C 294.89,312.963 293.39,312.297 291.5,312.5 Z"/></g>
<g><path style="opacity:1" fill="#4f350f" d="M 306.5,311.5 C 307.833,311.5 309.167,311.5 310.5,311.5C 310.38,312.586 309.713,313.253 308.5,313.5C 307.287,313.253 306.62,312.586 306.5,311.5 Z"/></g>
<g><path style="opacity:1" fill="#42331d" d="M 313.5,321.5 C 314.052,319.669 314.052,318.003 313.5,316.5C 314.966,314.343 316.8,314.01 319,315.5C 319.497,317.81 319.663,320.143 319.5,322.5C 317.379,322.675 315.379,322.341 313.5,321.5 Z"/></g>
<g><path style="opacity:1" fill="#d6c336" d="M 295.5,311.5 C 297.973,311.088 299.306,312.088 299.5,314.5C 299.881,315.931 300.881,316.764 302.5,317C 301.5,317.5 300.5,318 299.5,318.5C 298.224,319.614 298.224,320.614 299.5,321.5C 299.5,321.833 299.5,322.167 299.5,322.5C 297.323,322.586 295.323,323.253 293.5,324.5C 292.702,324.043 292.369,323.376 292.5,322.5C 295.68,322.824 296.847,321.49 296,318.5C 294.604,320.527 292.938,320.86 291,319.5C 290.444,317.115 290.61,314.782 291.5,312.5C 293.39,312.297 294.89,312.963 296,314.5C 296.47,313.423 296.303,312.423 295.5,311.5 Z"/></g>
<g><path style="opacity:1" fill="#27180d" d="M 311.5,322.5 C 311.167,322.5 310.833,322.5 310.5,322.5C 310.5,320.5 310.5,318.5 310.5,316.5C 309.209,316.263 308.209,316.596 307.5,317.5C 307.784,319.415 307.451,321.081 306.5,322.5C 305.2,319.976 305.2,317.309 306.5,314.5C 307.5,315.833 308.5,315.833 309.5,314.5C 310.086,314.709 310.586,315.043 311,315.5C 311.497,317.81 311.663,320.143 311.5,322.5 Z"/></g>
<g><path style="opacity:1" fill="#120e06" d="M 339.5,221.5 C 339.833,222.167 340.167,222.833 340.5,223.5C 337.426,223.873 334.426,224.539 331.5,225.5C 331.425,239.133 331.258,252.8 331,266.5C 334.976,270.695 336.476,275.695 335.5,281.5C 334.779,287.856 334.113,294.356 333.5,301C 333.954,303.03 334.62,304.863 335.5,306.5C 336.964,309.262 338.297,312.095 339.5,315C 345.05,316.118 350.55,317.284 356,318.5C 360.928,315.036 366.261,312.37 372,310.5C 377.204,312.798 382.371,315.298 387.5,318C 396.779,321.129 405.112,319.629 412.5,313.5C 412.5,314.167 412.5,314.833 412.5,315.5C 410.599,317.796 408.266,319.629 405.5,321C 398.026,321.963 390.693,321.463 383.5,319.5C 379.608,317.181 375.608,314.848 371.5,312.5C 367.64,314.392 363.974,316.559 360.5,319C 357.544,320.663 354.544,320.829 351.5,319.5C 350.368,318.646 349.035,318.646 347.5,319.5C 344.286,318.718 340.952,317.885 337.5,317C 335.211,313.041 333.378,308.874 332,304.5C 332,295.325 332.5,286.158 333.5,277C 332.92,273.672 331.42,270.839 329,268.5C 329.246,253.467 329.413,238.467 329.5,223.5C 332.684,222.357 336.017,221.691 339.5,221.5 Z"/></g>
<g><path style="opacity:1" fill="#9c8969" d="M 307.5,317.5 C 308.209,316.596 309.209,316.263 310.5,316.5C 310.5,318.5 310.5,320.5 310.5,322.5C 310.028,320.469 309.028,318.802 307.5,317.5 Z"/></g>
<g><path style="opacity:1" fill="#322219" d="M 322.5,314.5 C 323.167,314.5 323.833,314.5 324.5,314.5C 324.611,315.117 324.944,315.617 325.5,316C 324.167,316.333 322.833,316.667 321.5,317C 323.573,317.118 324.907,318.118 325.5,320C 324.125,323.069 322.459,323.236 320.5,320.5C 320.88,318.979 321.046,317.313 321,315.5C 321.383,314.944 321.883,314.611 322.5,314.5 Z"/></g>
<g><path style="opacity:1" fill="#231a15" d="M 299.5,314.5 C 299.833,314.5 300.167,314.5 300.5,314.5C 301.791,314.263 302.791,314.596 303.5,315.5C 303.799,317.604 303.466,319.604 302.5,321.5C 302.511,320.559 302.011,319.892 301,319.5C 299.97,319.836 299.47,320.503 299.5,321.5C 298.224,320.614 298.224,319.614 299.5,318.5C 300.5,318 301.5,317.5 302.5,317C 300.881,316.764 299.881,315.931 299.5,314.5 Z"/></g>
<g><path style="opacity:1" fill="#cd7108" d="M 383.5,319.5 C 384.347,320.966 385.68,321.8 387.5,322C 391.956,321.898 395.956,322.732 399.5,324.5C 393.36,336.828 386.526,348.828 379,360.5C 378.192,362.423 377.692,364.423 377.5,366.5C 378.677,370.504 379.51,374.504 380,378.5C 369.853,382.309 363.686,389.476 361.5,400C 360.167,400.667 358.833,400.667 357.5,400C 356.627,398.955 355.627,398.122 354.5,397.5C 348.216,388.345 339.549,385.178 328.5,388C 325.543,388.279 322.877,389.113 320.5,390.5C 319.526,391.635 318.359,392.635 317,393.5C 316.879,391.273 316.046,389.44 314.5,388C 308.773,389.641 302.773,390.474 296.5,390.5C 291.372,390.977 286.705,389.977 282.5,387.5C 281.152,386.399 279.652,385.399 278,384.5C 277.627,382.302 277.127,380.135 276.5,378C 277.768,375.195 279.768,374.361 282.5,375.5C 281.754,376.736 281.421,378.07 281.5,379.5C 282.5,379.5 283.5,379.5 284.5,379.5C 284.553,375.08 283.72,371.08 282,367.5C 283.085,365.627 284.418,363.96 286,362.5C 286.333,362.833 286.667,363.167 287,363.5C 288.667,362.833 290.333,362.167 292,361.5C 292.346,363.218 292.846,364.885 293.5,366.5C 291.393,369.275 291.059,372.275 292.5,375.5C 296.094,376.426 299.76,376.759 303.5,376.5C 303.5,375.5 303.5,374.5 303.5,373.5C 303.833,373.5 304.167,373.5 304.5,373.5C 307.362,374.681 310.362,374.681 313.5,373.5C 315.167,373.5 316.833,373.5 318.5,373.5C 321.507,375.175 324.84,375.841 328.5,375.5C 329.416,375.982 330.416,376.315 331.5,376.5C 333.944,374.946 336.611,373.946 339.5,373.5C 339.369,374.376 339.702,375.043 340.5,375.5C 342.336,374.972 344.003,374.306 345.5,373.5C 347.044,373.703 348.378,374.37 349.5,375.5C 353.334,374.737 357.334,374.57 361.5,375C 364.089,371.264 364.089,367.598 361.5,364C 344.839,364.666 328.172,364.499 311.5,363.5C 310.167,362.5 308.833,361.5 307.5,360.5C 306.478,360.855 305.811,361.522 305.5,362.5C 305.5,362.833 305.5,363.167 305.5,363.5C 304.176,364.85 303.176,364.683 302.5,363C 303.409,361.211 303.576,359.377 303,357.5C 302.051,360.2 300.217,361.033 297.5,360C 295.393,358.736 294.393,356.903 294.5,354.5C 294.953,353.542 295.619,352.708 296.5,352C 304.888,347.319 313.888,344.652 323.5,344C 325.02,342.115 326.02,339.949 326.5,337.5C 329.853,336.645 332.519,334.811 334.5,332C 339.423,331.693 343.756,330.027 347.5,327C 348.378,324.151 349.711,321.651 351.5,319.5C 354.544,320.829 357.544,320.663 360.5,319C 363.974,316.559 367.64,314.392 371.5,312.5C 375.608,314.848 379.608,317.181 383.5,319.5 Z"/></g>
<g><path style="opacity:1" fill="#121107" d="M 317.5,196.5 C 318.833,196.5 320.167,196.5 321.5,196.5C 319.288,201.609 317.621,206.943 316.5,212.5C 311.939,216.64 307.605,220.973 303.5,225.5C 298.019,233.74 296.185,242.74 298,252.5C 293.591,258.651 290.258,265.317 288,272.5C 287.423,281.246 287.756,289.913 289,298.5C 284.824,309.024 280.157,319.357 275,329.5C 272.323,336.88 270.656,344.547 270,352.5C 268.03,354.921 266.53,357.588 265.5,360.5C 264.29,360.068 263.29,359.401 262.5,358.5C 264.314,356.236 266.147,353.903 268,351.5C 268.527,343.196 270.194,335.196 273,327.5C 277.838,317.42 282.671,307.42 287.5,297.5C 284.7,286.445 284.867,275.445 288,264.5C 294.806,255.345 297.473,245.012 296,233.5C 297.584,229.997 299.417,226.664 301.5,223.5C 305.45,219.261 309.616,215.261 314,211.5C 316.27,206.754 317.437,201.754 317.5,196.5 Z"/></g>
<g><path style="opacity:1" fill="#342004" d="M 291.5,312.5 C 290.61,314.782 290.444,317.115 291,319.5C 292.938,320.86 294.604,320.527 296,318.5C 296.847,321.49 295.68,322.824 292.5,322.5C 290.078,321.308 289.078,319.308 289.5,316.5C 289.585,314.667 290.252,313.334 291.5,312.5 Z"/></g>
<g><path style="opacity:1" fill="#564c10" d="M 303.5,315.5 C 304.468,317.607 304.802,319.941 304.5,322.5C 302.833,322.5 301.167,322.5 299.5,322.5C 299.5,322.167 299.5,321.833 299.5,321.5C 299.47,320.503 299.97,319.836 301,319.5C 302.011,319.892 302.511,320.559 302.5,321.5C 303.466,319.604 303.799,317.604 303.5,315.5 Z"/></g>
<g><path style="opacity:1" fill="#b6752a" d="M 412.5,315.5 C 415.987,316.483 417.32,318.817 416.5,322.5C 410.676,322.21 405.009,322.877 399.5,324.5C 395.956,322.732 391.956,321.898 387.5,322C 385.68,321.8 384.347,320.966 383.5,319.5C 390.693,321.463 398.026,321.963 405.5,321C 408.266,319.629 410.599,317.796 412.5,315.5 Z"/></g>
<g><path style="opacity:1" fill="#c3722b" d="M 200.5,324.5 C 201.239,324.369 201.906,324.536 202.5,325C 198.625,329.934 193.625,332.768 187.5,333.5C 183.892,332.407 180.225,332.24 176.5,333C 174.488,336.005 173.155,339.171 172.5,342.5C 172.5,340.167 172.5,337.833 172.5,335.5C 169.615,335.806 166.948,335.473 164.5,334.5C 166.857,334.663 169.19,334.497 171.5,334C 179.805,326.856 189.472,323.689 200.5,324.5 Z"/></g>
<g><path style="opacity:1" fill="#7ba73a" d="M 221.5,336.5 C 234.2,337.015 242.867,343.182 247.5,355C 250.207,355.395 252.873,355.895 255.5,356.5C 261.811,374.229 264.977,392.562 265,411.5C 266.045,412.373 266.878,413.373 267.5,414.5C 266.423,417.378 264.756,419.878 262.5,422C 257.934,423.309 253.267,423.809 248.5,423.5C 248.261,425.467 248.594,427.301 249.5,429C 240.501,429.57 231.668,428.737 223,426.5C 214.097,426.535 206.43,429.535 200,435.5C 197.754,440.481 194.087,444.148 189,446.5C 184.851,454.259 184.351,462.426 187.5,471C 186.627,476.152 185.793,481.319 185,486.5C 182.365,490.636 179.532,494.636 176.5,498.5C 173.171,498.736 170.171,497.903 167.5,496C 160.307,495.256 153.141,495.423 146,496.5C 143.431,496.467 141.597,495.3 140.5,493C 136.249,491.805 131.915,491.305 127.5,491.5C 127.5,490.5 127.5,489.5 127.5,488.5C 124.428,488.817 121.428,488.484 118.5,487.5C 117.07,483.908 115.903,480.242 115,476.5C 114,475.5 113,474.5 112,473.5C 111.394,470.287 110.227,467.287 108.5,464.5C 107.675,463.614 106.675,463.281 105.5,463.5C 104.89,462.609 104.557,461.609 104.5,460.5C 110.515,458.439 116.515,456.272 122.5,454C 126,449.833 129.5,445.667 133,441.5C 134.894,436.608 137.228,431.941 140,427.5C 140.406,423.039 140.072,418.706 139,414.5C 140.737,409.343 144.07,405.676 149,403.5C 150.749,391.001 156.416,380.668 166,372.5C 166.875,367.367 168.208,362.367 170,357.5C 170.759,355.365 172.259,354.032 174.5,353.5C 175.328,349.204 175.828,344.871 176,340.5C 176.471,338.754 177.138,337.087 178,335.5C 183.081,335.164 188.248,334.998 193.5,335C 198.19,333.475 201.857,330.641 204.5,326.5C 207.394,328.821 210.727,329.988 214.5,330C 215.875,333.299 218.209,335.466 221.5,336.5 Z"/></g>
<g><path style="opacity:1" fill="#f4faee" d="M 255.5,356.5 C 252.873,355.895 250.207,355.395 247.5,355C 242.867,343.182 234.2,337.015 221.5,336.5C 221.5,335.833 221.5,335.167 221.5,334.5C 225.105,330.292 229.438,329.458 234.5,332C 237.328,334.248 240.328,336.248 243.5,338C 249.057,343.198 253.057,349.365 255.5,356.5 Z"/></g>
<g><path style="opacity:1" fill="#230c07" d="M 351.5,319.5 C 349.711,321.651 348.378,324.151 347.5,327C 343.756,330.027 339.423,331.693 334.5,332C 332.519,334.811 329.853,336.645 326.5,337.5C 326.02,339.949 325.02,342.115 323.5,344C 313.888,344.652 304.888,347.319 296.5,352C 295.619,352.708 294.953,353.542 294.5,354.5C 290.404,357.74 286.237,361.073 282,364.5C 279.023,369.958 275.523,374.958 271.5,379.5C 269.164,378.406 269.164,377.073 271.5,375.5C 274.966,370.601 278.466,365.601 282,360.5C 286.145,358.685 289.312,355.851 291.5,352C 295.948,349.216 300.615,346.883 305.5,345C 310.906,344.217 316.239,343.217 321.5,342C 323.377,339.874 324.377,337.374 324.5,334.5C 330.253,330.972 336.586,328.472 343.5,327C 345.87,325.059 347.203,322.559 347.5,319.5C 349.035,318.646 350.368,318.646 351.5,319.5 Z"/></g>
<g><path style="opacity:1" fill="#e0c48d" d="M 339.5,373.5 C 336.611,373.946 333.944,374.946 331.5,376.5C 330.416,376.315 329.416,375.982 328.5,375.5C 328.179,373.952 327.179,373.285 325.5,373.5C 325.5,371.5 325.5,369.5 325.5,367.5C 324.5,367.5 323.5,367.5 322.5,367.5C 322.799,369.604 322.466,371.604 321.5,373.5C 320.52,370.914 320.187,368.247 320.5,365.5C 327.508,365.334 334.508,365.5 341.5,366C 342.435,368.381 342.768,370.881 342.5,373.5C 341.5,373.5 340.5,373.5 339.5,373.5 Z"/></g>
<g><path style="opacity:1" fill="#c0761c" d="M 294.5,354.5 C 294.393,356.903 295.393,358.736 297.5,360C 300.217,361.033 302.051,360.2 303,357.5C 303.576,359.377 303.409,361.211 302.5,363C 303.176,364.683 304.176,364.85 305.5,363.5C 305.5,366.833 305.5,370.167 305.5,373.5C 311.067,374.247 312.9,371.913 311,366.5C 309.989,365.663 308.822,365.33 307.5,365.5C 307.715,363.821 307.048,362.821 305.5,362.5C 305.811,361.522 306.478,360.855 307.5,360.5C 308.833,361.5 310.167,362.5 311.5,363.5C 328.172,364.499 344.839,364.666 361.5,364C 364.089,367.598 364.089,371.264 361.5,375C 357.334,374.57 353.334,374.737 349.5,375.5C 348.378,374.37 347.044,373.703 345.5,373.5C 344.003,374.306 342.336,374.972 340.5,375.5C 339.702,375.043 339.369,374.376 339.5,373.5C 340.5,373.5 341.5,373.5 342.5,373.5C 342.768,370.881 342.435,368.381 341.5,366C 334.508,365.5 327.508,365.334 320.5,365.5C 320.187,368.247 320.52,370.914 321.5,373.5C 322.466,371.604 322.799,369.604 322.5,367.5C 323.5,367.5 324.5,367.5 325.5,367.5C 325.5,369.5 325.5,371.5 325.5,373.5C 327.179,373.285 328.179,373.952 328.5,375.5C 324.84,375.841 321.507,375.175 318.5,373.5C 319.629,371.372 319.796,369.039 319,366.5C 317.333,365.167 315.667,365.167 314,366.5C 313.503,368.81 313.337,371.143 313.5,373.5C 310.362,374.681 307.362,374.681 304.5,373.5C 303.653,369.777 302.653,366.111 301.5,362.5C 300.5,362.5 299.5,362.5 298.5,362.5C 297.909,365.94 296.909,369.273 295.5,372.5C 295.833,372.833 296.167,373.167 296.5,373.5C 298.912,370.884 301.245,370.884 303.5,373.5C 303.5,374.5 303.5,375.5 303.5,376.5C 299.76,376.759 296.094,376.426 292.5,375.5C 291.059,372.275 291.393,369.275 293.5,366.5C 292.846,364.885 292.346,363.218 292,361.5C 290.333,362.167 288.667,362.833 287,363.5C 286.667,363.167 286.333,362.833 286,362.5C 284.418,363.96 283.085,365.627 282,367.5C 283.72,371.08 284.553,375.08 284.5,379.5C 283.5,379.5 282.5,379.5 281.5,379.5C 281.421,378.07 281.754,376.736 282.5,375.5C 279.768,374.361 277.768,375.195 276.5,378C 277.127,380.135 277.627,382.302 278,384.5C 279.652,385.399 281.152,386.399 282.5,387.5C 279.402,387.244 276.402,386.578 273.5,385.5C 272.37,383.685 271.704,381.685 271.5,379.5C 275.523,374.958 279.023,369.958 282,364.5C 286.237,361.073 290.404,357.74 294.5,354.5 Z"/></g>
<g><path style="opacity:1" fill="#e5d8a0" d="M 318.5,373.5 C 316.833,373.5 315.167,373.5 313.5,373.5C 313.337,371.143 313.503,368.81 314,366.5C 315.667,365.167 317.333,365.167 319,366.5C 319.796,369.039 319.629,371.372 318.5,373.5 Z"/></g>
<g><path style="opacity:1" fill="#eecea3" d="M 305.5,362.5 C 307.048,362.821 307.715,363.821 307.5,365.5C 308.822,365.33 309.989,365.663 311,366.5C 312.9,371.913 311.067,374.247 305.5,373.5C 305.5,370.167 305.5,366.833 305.5,363.5C 305.5,363.167 305.5,362.833 305.5,362.5 Z"/></g>
<g><path style="opacity:1" fill="#e5c792" d="M 345.5,373.5 C 343.631,371.365 342.964,368.698 343.5,365.5C 348.95,365.753 354.283,365.92 359.5,366C 359.833,366.333 360.167,366.667 360.5,367C 356.81,367.424 356.643,368.258 360,369.5C 360.49,370.793 360.657,372.127 360.5,373.5C 357.762,374.035 355.928,373.035 355,370.5C 353.713,373.145 351.547,374.145 348.5,373.5C 348.5,371.5 348.5,369.5 348.5,367.5C 347.5,367.5 346.5,367.5 345.5,367.5C 345.5,369.5 345.5,371.5 345.5,373.5 Z"/></g>
<g><path style="opacity:1" fill="#ecd49f" d="M 304.5,373.5 C 304.167,373.5 303.833,373.5 303.5,373.5C 301.245,370.884 298.912,370.884 296.5,373.5C 296.167,373.167 295.833,372.833 295.5,372.5C 296.909,369.273 297.909,365.94 298.5,362.5C 299.5,362.5 300.5,362.5 301.5,362.5C 302.653,366.111 303.653,369.777 304.5,373.5 Z"/></g>
<g><path style="opacity:1" fill="#cd7105" d="M 164.5,334.5 C 166.948,335.473 169.615,335.806 172.5,335.5C 172.5,337.833 172.5,340.167 172.5,342.5C 172.344,345.066 172.678,347.566 173.5,350C 170.983,352.184 168.817,354.684 167,357.5C 166.183,361.899 165.183,366.232 164,370.5C 160.106,374.608 156.439,378.941 153,383.5C 151.251,389.575 149.251,395.575 147,401.5C 145,402.833 143,404.167 141,405.5C 136.154,411.266 135.321,417.6 138.5,424.5C 136.057,429.052 133.89,433.718 132,438.5C 128.352,442.655 124.852,446.988 121.5,451.5C 114.957,453.946 108.624,456.613 102.5,459.5C 95.8963,457.025 90.0629,453.359 85,448.5C 82.8352,442.512 79.3352,437.512 74.5,433.5C 72.6606,429.146 70.3272,425.146 67.5,421.5C 64.9659,413.069 61.7992,404.735 58,396.5C 55.2467,391.992 52.2467,387.659 49,383.5C 48.0418,378.877 47.3751,374.21 47,369.5C 44.0493,367.824 42.216,365.324 41.5,362C 42.1044,356.174 42.7711,350.34 43.5,344.5C 44.624,343.086 45.624,341.586 46.5,340C 43.0271,333.699 39.3604,327.533 35.5,321.5C 39.9696,317.308 44.4696,312.975 49,308.5C 50.4381,307.1 51.2714,305.433 51.5,303.5C 54.6021,303.154 57.4355,303.821 60,305.5C 60.9886,301.168 62.1553,296.835 63.5,292.5C 69.4219,292.228 72.7553,289.228 73.5,283.5C 75.6207,282.057 77.954,281.057 80.5,280.5C 86.3395,281.044 90.8395,283.71 94,288.5C 95.4696,295.674 99.9696,299.174 107.5,299C 110.231,301.626 112.064,304.793 113,308.5C 116.396,311.232 119.063,314.565 121,318.5C 121.203,324.799 122.036,330.965 123.5,337C 125.5,337.667 127.5,337.667 129.5,337C 136.817,334.507 143.817,331.34 150.5,327.5C 153.703,328.746 157.036,329.746 160.5,330.5C 161.909,331.849 163.243,333.182 164.5,334.5 Z"/></g>
<g><path style="opacity:1" fill="#bc7b28" d="M 101.5,366.5 C 98.8753,367.466 98.8753,368.466 101.5,369.5C 100.052,370.354 98.7187,371.354 97.5,372.5C 96.2404,370.647 96.2404,368.814 97.5,367C 96.3206,363.752 95.3206,363.918 94.5,367.5C 95.3482,369.409 95.6816,371.409 95.5,373.5C 94.8485,374.091 94.1818,374.757 93.5,375.5C 92.8933,375.376 92.56,375.043 92.5,374.5C 93.6291,372.372 93.7958,370.039 93,367.5C 91.3005,366.594 89.4672,366.261 87.5,366.5C 87.1866,369.247 87.52,371.914 88.5,374.5C 90.1136,366.602 91.1136,366.602 91.5,374.5C 87.8653,377.396 84.0319,377.729 80,375.5C 72.1922,378.03 69.0255,375.196 70.5,367C 70.5252,364.245 70.8586,361.578 71.5,359C 74.5851,358.542 76.9184,359.709 78.5,362.5C 84.8072,363.331 91.1406,363.831 97.5,364C 99.3197,364.2 100.653,365.034 101.5,366.5 Z"/></g>
<g><path style="opacity:1" fill="#edd4a5" d="M 80.5,366.5 C 82.1439,366.286 83.6439,366.62 85,367.5C 85.4966,369.81 85.6633,372.143 85.5,374.5C 79.612,374.742 77.9453,372.076 80.5,366.5 Z"/></g>
<g><path style="opacity:1" fill="#fbe19f" d="M 72.5,363.5 C 74.1992,363.34 75.8659,363.506 77.5,364C 78.7112,364.893 78.7112,365.726 77.5,366.5C 76.4763,365.147 75.143,364.48 73.5,364.5C 73.281,365.675 73.6143,366.675 74.5,367.5C 79.611,369.629 79.7777,371.962 75,374.5C 71.8348,374.466 71.0015,373.133 72.5,370.5C 73.5237,371.853 74.857,372.52 76.5,372.5C 76.5,371.5 76.5,370.5 76.5,369.5C 72.2615,369.28 70.9282,367.28 72.5,363.5 Z"/></g>
<g><path style="opacity:1" fill="#f1d7a1" d="M 101.5,366.5 C 101.833,366.5 102.167,366.5 102.5,366.5C 103.117,366.611 103.617,366.944 104,367.5C 104.497,369.81 104.663,372.143 104.5,374.5C 101.5,374.5 98.5,374.5 95.5,374.5C 95.5,374.167 95.5,373.833 95.5,373.5C 95.6816,371.409 95.3482,369.409 94.5,367.5C 95.3206,363.918 96.3206,363.752 97.5,367C 96.2404,368.814 96.2404,370.647 97.5,372.5C 98.7187,371.354 100.052,370.354 101.5,369.5C 98.8753,368.466 98.8753,367.466 101.5,366.5 Z"/></g>
<g><path style="opacity:1" fill="#f5dea1" d="M 92.5,374.5 C 92.1667,374.5 91.8333,374.5 91.5,374.5C 91.1136,366.602 90.1136,366.602 88.5,374.5C 87.52,371.914 87.1866,369.247 87.5,366.5C 89.4672,366.261 91.3005,366.594 93,367.5C 93.7958,370.039 93.6291,372.372 92.5,374.5 Z"/></g>
<g><path style="opacity:1" fill="#bb7825" d="M 123.5,368.5 C 122.817,366.824 121.483,366.157 119.5,366.5C 119.5,369.167 119.5,371.833 119.5,374.5C 116.454,376.292 113.121,377.292 109.5,377.5C 109.384,374.14 109.051,370.807 108.5,367.5C 107.5,367.5 106.5,367.5 105.5,367.5C 105.5,370.5 105.5,373.5 105.5,376.5C 101.671,377.069 98.3373,376.402 95.5,374.5C 98.5,374.5 101.5,374.5 104.5,374.5C 104.663,372.143 104.497,369.81 104,367.5C 103.617,366.944 103.117,366.611 102.5,366.5C 105.978,365.639 109.644,364.305 113.5,362.5C 116.833,363.5 120.167,364.5 123.5,365.5C 128.069,363.884 132.735,363.384 137.5,364C 139.852,364.576 140.852,366.076 140.5,368.5C 140.146,371.251 139.479,373.917 138.5,376.5C 134.861,377.46 131.195,377.46 127.5,376.5C 127.657,377.873 127.49,379.207 127,380.5C 124.467,377.363 123.3,373.363 123.5,368.5 Z"/></g>
<g><path style="opacity:1" fill="#fddf9b" d="M 132.5,366.5 C 133.833,366.5 135.167,366.5 136.5,366.5C 136.528,368.582 135.861,370.416 134.5,372C 138.378,373.065 138.378,373.899 134.5,374.5C 133.5,374.167 132.5,373.833 131.5,373.5C 132.624,372.086 133.624,370.586 134.5,369C 133.244,368.583 132.577,367.75 132.5,366.5 Z"/></g>
<g><path style="opacity:1" fill="#f7dba4" d="M 111.5,363.5 C 113.977,363.051 115.977,363.717 117.5,365.5C 115.979,365.88 114.313,366.046 112.5,366C 111.424,367.726 111.257,369.559 112,371.5C 113.751,372.809 115.251,372.475 116.5,370.5C 117.731,371.651 117.731,372.817 116.5,374C 111.979,375.485 109.645,373.819 109.5,369C 110.077,367.1 110.744,365.267 111.5,363.5 Z"/></g>
<g><path style="opacity:1" fill="#fcde9f" d="M 124.5,366.5 C 126.036,368.025 127.036,370.025 127.5,372.5C 128.167,370.5 128.833,368.5 129.5,366.5C 130.48,369.086 130.813,371.753 130.5,374.5C 128.533,374.739 126.699,374.406 125,373.5C 124.503,371.19 124.337,368.857 124.5,366.5 Z"/></g>
<g><path style="opacity:1" fill="#fae2b0" d="M 123.5,368.5 C 122.167,370.5 120.833,372.5 119.5,374.5C 119.5,371.833 119.5,369.167 119.5,366.5C 121.483,366.157 122.817,366.824 123.5,368.5 Z"/></g>
<g><path style="opacity:1" fill="#fcf4cf" d="M 354.5,397.5 C 349.757,395.293 345.091,392.793 340.5,390C 338.153,389.564 335.819,389.064 333.5,388.5C 329.239,389.686 324.906,390.353 320.5,390.5C 322.877,389.113 325.543,388.279 328.5,388C 339.549,385.178 348.216,388.345 354.5,397.5 Z"/></g>
<g><path style="opacity:1" fill="#8aa85b" d="M 212.5,405.5 C 209.794,406.118 207.961,407.785 207,410.5C 206.241,408.937 205.074,407.937 203.5,407.5C 204.341,404.481 205.341,401.481 206.5,398.5C 206.167,398.167 205.833,397.833 205.5,397.5C 204.416,398.665 203.583,399.998 203,401.5C 202.417,399.998 201.584,398.665 200.5,397.5C 200.167,397.833 199.833,398.167 199.5,398.5C 200.366,400.432 201.033,402.432 201.5,404.5C 201.253,405.713 200.586,406.38 199.5,406.5C 199.737,405.209 199.404,404.209 198.5,403.5C 199.592,398.877 197.925,397.044 193.5,398C 191.006,400.244 191.006,402.577 193.5,405C 194.448,405.483 195.448,405.649 196.5,405.5C 196.53,406.497 196.03,407.164 195,407.5C 193.36,406.157 191.86,405.49 190.5,405.5C 190.649,404.448 190.483,403.448 190,402.5C 188.989,403.337 187.822,403.67 186.5,403.5C 186.5,402.167 186.5,400.833 186.5,399.5C 187.978,399.762 189.311,399.429 190.5,398.5C 188.994,397.253 187.494,397.253 186,398.5C 185.333,400.5 185.333,402.5 186,404.5C 186.671,405.252 187.504,405.586 188.5,405.5C 187.001,406.494 185.334,406.494 183.5,405.5C 183.631,406.376 183.298,407.043 182.5,407.5C 181.033,406.305 179.533,406.305 178,407.5C 176.923,406.571 175.756,405.904 174.5,405.5C 174.34,403.801 174.506,402.134 175,400.5C 176.167,402.167 177.333,403.833 178.5,405.5C 179.659,401.878 179.825,398.211 179,394.5C 178.798,396.256 178.298,397.922 177.5,399.5C 176.167,397.833 174.833,396.167 173.5,394.5C 172.516,397.428 172.183,400.428 172.5,403.5C 170.309,400.469 169.976,397.135 171.5,393.5C 172.167,393.167 172.833,392.833 173.5,392.5C 186.379,395.784 199.713,397.284 213.5,397C 213.957,397.414 214.291,397.914 214.5,398.5C 213.933,400.982 213.266,403.316 212.5,405.5 Z"/></g>
<g><path style="opacity:1" fill="#d5eabc" d="M 212.5,405.5 C 210.833,405.5 209.167,405.5 207.5,405.5C 207.5,402.833 207.5,400.167 207.5,397.5C 209.167,397.5 210.833,397.5 212.5,397.5C 212.5,400.167 212.5,402.833 212.5,405.5 Z"/></g>
<g><path style="opacity:1" fill="#f6fae6" d="M 255.5,356.5 C 257.921,356.878 260.254,357.545 262.5,358.5C 263.29,359.401 264.29,360.068 265.5,360.5C 266.349,365.228 267.515,369.895 269,374.5C 269.671,375.252 270.504,375.586 271.5,375.5C 269.164,377.073 269.164,378.406 271.5,379.5C 271.704,381.685 272.37,383.685 273.5,385.5C 270.911,384.352 269.245,382.352 268.5,379.5C 266.938,381.957 265.938,384.624 265.5,387.5C 266.176,394.486 266.676,401.486 267,408.5C 267.573,410.641 268.406,412.641 269.5,414.5C 268.833,414.5 268.167,414.5 267.5,414.5C 266.878,413.373 266.045,412.373 265,411.5C 264.977,392.562 261.811,374.229 255.5,356.5 Z"/></g>
<g><path style="opacity:1" fill="#e3f5ca" d="M 174.5,405.5 C 173.167,405.5 172.5,404.833 172.5,403.5C 172.183,400.428 172.516,397.428 173.5,394.5C 174.833,396.167 176.167,397.833 177.5,399.5C 178.298,397.922 178.798,396.256 179,394.5C 179.825,398.211 179.659,401.878 178.5,405.5C 177.333,403.833 176.167,402.167 175,400.5C 174.506,402.134 174.34,403.801 174.5,405.5 Z"/></g>
<g><path style="opacity:1" fill="#e0f0d5" d="M 183.5,405.5 C 182.252,404.666 181.585,403.333 181.5,401.5C 181.833,400.167 182.167,398.833 182.5,397.5C 183.48,400.086 183.813,402.753 183.5,405.5 Z"/></g>
<g><path style="opacity:1" fill="#e4f8c2" d="M 190.5,405.5 C 189.833,405.5 189.167,405.5 188.5,405.5C 187.504,405.586 186.671,405.252 186,404.5C 185.333,402.5 185.333,400.5 186,398.5C 187.494,397.253 188.994,397.253 190.5,398.5C 189.311,399.429 187.978,399.762 186.5,399.5C 186.5,400.833 186.5,402.167 186.5,403.5C 187.822,403.67 188.989,403.337 190,402.5C 190.483,403.448 190.649,404.448 190.5,405.5 Z"/></g>
<g><path style="opacity:1" fill="#cae3a4" d="M 198.5,403.5 C 198.167,404.5 197.5,405.167 196.5,405.5C 195.448,405.649 194.448,405.483 193.5,405C 191.006,402.577 191.006,400.244 193.5,398C 197.925,397.044 199.592,398.877 198.5,403.5 Z"/></g>
<g><path style="opacity:1" fill="#daf1c4" d="M 203.5,407.5 C 201.544,409.175 200.211,408.842 199.5,406.5C 200.586,406.38 201.253,405.713 201.5,404.5C 201.033,402.432 200.366,400.432 199.5,398.5C 199.833,398.167 200.167,397.833 200.5,397.5C 201.584,398.665 202.417,399.998 203,401.5C 203.583,399.998 204.416,398.665 205.5,397.5C 205.833,397.833 206.167,398.167 206.5,398.5C 205.341,401.481 204.341,404.481 203.5,407.5 Z"/></g>
<g><path style="opacity:1" fill="#190d05" d="M 210.5,299.5 C 213.296,301.467 215.63,303.967 217.5,307C 217.265,307.873 216.931,308.707 216.5,309.5C 210.606,311.989 206.606,316.322 204.5,322.5C 206.651,323.82 208.651,325.32 210.5,327C 212.81,327.497 215.143,327.663 217.5,327.5C 217.961,330.303 219.295,332.637 221.5,334.5C 221.5,335.167 221.5,335.833 221.5,336.5C 218.209,335.466 215.875,333.299 214.5,330C 210.727,329.988 207.394,328.821 204.5,326.5C 201.857,330.641 198.19,333.475 193.5,335C 188.248,334.998 183.081,335.164 178,335.5C 177.138,337.087 176.471,338.754 176,340.5C 175.828,344.871 175.328,349.204 174.5,353.5C 172.259,354.032 170.759,355.365 170,357.5C 168.208,362.367 166.875,367.367 166,372.5C 156.416,380.668 150.749,391.001 149,403.5C 144.07,405.676 140.737,409.343 139,414.5C 140.072,418.706 140.406,423.039 140,427.5C 137.228,431.941 134.894,436.608 133,441.5C 129.5,445.667 126,449.833 122.5,454C 116.515,456.272 110.515,458.439 104.5,460.5C 103.833,460.167 103.167,459.833 102.5,459.5C 108.624,456.613 114.957,453.946 121.5,451.5C 124.852,446.988 128.352,442.655 132,438.5C 133.89,433.718 136.057,429.052 138.5,424.5C 135.321,417.6 136.154,411.266 141,405.5C 143,404.167 145,402.833 147,401.5C 149.251,395.575 151.251,389.575 153,383.5C 156.439,378.941 160.106,374.608 164,370.5C 165.183,366.232 166.183,361.899 167,357.5C 168.817,354.684 170.983,352.184 173.5,350C 172.678,347.566 172.344,345.066 172.5,342.5C 173.155,339.171 174.488,336.005 176.5,333C 180.225,332.24 183.892,332.407 187.5,333.5C 193.625,332.768 198.625,329.934 202.5,325C 201.906,324.536 201.239,324.369 200.5,324.5C 200.833,323.833 201.167,323.167 201.5,322.5C 202.927,320.852 203.76,318.852 204,316.5C 206.776,313.551 209.609,310.884 212.5,308.5C 213.497,308.53 214.164,308.03 214.5,307C 213.356,304.367 212.023,301.867 210.5,299.5 Z"/></g>
<g><path style="opacity:1" fill="#ed1318" d="M 270.5,416.5 C 275.409,419.074 279.742,422.408 283.5,426.5C 280,425.502 276.834,423.836 274,421.5C 273.383,422.449 273.549,423.282 274.5,424C 276.872,426.019 279.539,427.686 282.5,429C 281.747,430.487 280.914,430.654 280,429.5C 278.401,431.036 276.567,431.536 274.5,431C 275.91,430.632 276.91,429.799 277.5,428.5C 275.263,427.868 273.597,426.535 272.5,424.5C 271.476,425.853 270.143,426.52 268.5,426.5C 268.5,427.5 268.5,428.5 268.5,429.5C 259.776,431.565 250.942,433.565 242,435.5C 240.674,435.245 239.674,434.578 239,433.5C 238.262,437.71 238.428,441.876 239.5,446C 239.167,446.5 238.833,447 238.5,447.5C 237.135,446.193 235.802,446.193 234.5,447.5C 238.49,442.527 238.49,437.527 234.5,432.5C 240.128,431.505 245.794,431.171 251.5,431.5C 251.5,429.5 251.5,427.5 251.5,425.5C 255.182,425.665 258.848,425.499 262.5,425C 265.71,422.625 268.376,419.792 270.5,416.5 Z"/></g>
<g><path style="opacity:1" fill="#fa0a11" d="M 283.5,426.5 C 286.803,427.151 289.47,428.818 291.5,431.5C 291.387,434.049 292.054,436.382 293.5,438.5C 293.156,441.036 292.156,443.203 290.5,445C 291.769,447.139 291.769,449.305 290.5,451.5C 288.708,454.637 286.208,456.97 283,458.5C 281.869,457.396 281.035,457.729 280.5,459.5C 277.562,460.489 274.562,461.156 271.5,461.5C 271.5,462.5 271.5,463.5 271.5,464.5C 262.228,464.384 254.395,467.717 248,474.5C 245.312,479.421 246.479,483.087 251.5,485.5C 253.032,491.933 250.532,493.933 244,491.5C 241.009,493.499 237.842,493.499 234.5,491.5C 232.884,487.724 231.884,488.058 231.5,492.5C 228.302,491.964 225.635,492.631 223.5,494.5C 223.167,494.5 222.833,494.5 222.5,494.5C 220.097,493.869 217.764,492.869 215.5,491.5C 218.167,491.167 220.833,490.833 223.5,490.5C 222.833,489.833 222.167,489.167 221.5,488.5C 223.86,486.302 225.193,483.635 225.5,480.5C 226.188,475.623 225.021,471.29 222,467.5C 221.176,464.118 221.343,460.784 222.5,457.5C 226.861,454.461 230.861,451.127 234.5,447.5C 235.802,446.193 237.135,446.193 238.5,447.5C 238.833,447 239.167,446.5 239.5,446C 238.428,441.876 238.262,437.71 239,433.5C 239.674,434.578 240.674,435.245 242,435.5C 250.942,433.565 259.776,431.565 268.5,429.5C 268.5,428.5 268.5,427.5 268.5,426.5C 270.143,426.52 271.476,425.853 272.5,424.5C 273.597,426.535 275.263,427.868 277.5,428.5C 276.91,429.799 275.91,430.632 274.5,431C 276.567,431.536 278.401,431.036 280,429.5C 280.914,430.654 281.747,430.487 282.5,429C 279.539,427.686 276.872,426.019 274.5,424C 273.549,423.282 273.383,422.449 274,421.5C 276.834,423.836 280,425.502 283.5,426.5 Z"/></g>
<g><path style="opacity:1" fill="#1e0e08" d="M 267.5,414.5 C 268.167,414.5 268.833,414.5 269.5,414.5C 269.833,415.167 270.167,415.833 270.5,416.5C 268.376,419.792 265.71,422.625 262.5,425C 258.848,425.499 255.182,425.665 251.5,425.5C 251.5,427.5 251.5,429.5 251.5,431.5C 245.794,431.171 240.128,431.505 234.5,432.5C 238.49,437.527 238.49,442.527 234.5,447.5C 230.861,451.127 226.861,454.461 222.5,457.5C 221.343,460.784 221.176,464.118 222,467.5C 225.021,471.29 226.188,475.623 225.5,480.5C 223.364,482.812 221.364,485.312 219.5,488C 215.5,488.667 211.5,489.333 207.5,490C 206.748,490.671 206.414,491.504 206.5,492.5C 205.609,491.89 204.609,491.557 203.5,491.5C 203.44,490.957 203.107,490.624 202.5,490.5C 198.132,493.15 195.132,496.817 193.5,501.5C 192.599,500.71 191.932,499.71 191.5,498.5C 193.506,494.475 196.506,491.308 200.5,489C 206.554,488.064 212.554,486.898 218.5,485.5C 219.851,482.804 221.684,480.47 224,478.5C 222.686,474.858 221.019,471.191 219,467.5C 218.333,464.167 218.333,460.833 219,457.5C 222.95,454.226 226.95,450.893 231,447.5C 232.5,445.167 234,442.833 235.5,440.5C 232.136,431.125 225.469,427.625 215.5,430C 211.58,430.962 207.914,432.462 204.5,434.5C 202.005,436.659 200.339,439.326 199.5,442.5C 195.118,445.263 191.285,448.597 188,452.5C 187.313,458.294 187.813,463.961 189.5,469.5C 188.905,475.518 188.239,481.518 187.5,487.5C 183.749,491.91 180.416,496.576 177.5,501.5C 176.833,501.167 176.167,500.833 175.5,500.5C 175.833,499.833 176.167,499.167 176.5,498.5C 179.532,494.636 182.365,490.636 185,486.5C 185.793,481.319 186.627,476.152 187.5,471C 184.351,462.426 184.851,454.259 189,446.5C 194.087,444.148 197.754,440.481 200,435.5C 206.43,429.535 214.097,426.535 223,426.5C 231.668,428.737 240.501,429.57 249.5,429C 248.594,427.301 248.261,425.467 248.5,423.5C 253.267,423.809 257.934,423.309 262.5,422C 264.756,419.878 266.423,417.378 267.5,414.5 Z"/></g>
<g><path style="opacity:1" fill="#fcfbeb" d="M 67.5,421.5 C 70.3272,425.146 72.6606,429.146 74.5,433.5C 79.3352,437.512 82.8352,442.512 85,448.5C 90.0629,453.359 95.8963,457.025 102.5,459.5C 103.167,459.833 103.833,460.167 104.5,460.5C 104.557,461.609 104.89,462.609 105.5,463.5C 107.243,467.984 109.243,472.317 111.5,476.5C 109.983,476.489 108.816,475.823 108,474.5C 106.659,471.978 105.826,469.311 105.5,466.5C 104.07,466.579 102.736,466.246 101.5,465.5C 99.6933,461.259 97.0266,460.592 93.5,463.5C 92.8333,463.167 92.1667,462.833 91.5,462.5C 98.3059,458.912 97.6393,457.245 89.5,457.5C 89.5,458.5 89.5,459.5 89.5,460.5C 87.0225,460.949 85.0225,460.283 83.5,458.5C 85.1667,457.167 86.8333,455.833 88.5,454.5C 87.0552,452.937 85.3885,451.604 83.5,450.5C 82.5344,448.604 82.2011,446.604 82.5,444.5C 77.9698,445.991 73.8032,445.324 70,442.5C 69.8333,442.167 69.6667,441.833 69.5,441.5C 71.7662,440.686 74.0995,440.186 76.5,440C 74.1067,436.712 72.1067,433.212 70.5,429.5C 69.2813,430.646 67.9479,431.646 66.5,432.5C 68.4377,436.157 67.4377,438.157 63.5,438.5C 65.096,432.948 66.4293,427.282 67.5,421.5 Z"/></g>
<g><path style="opacity:1" fill="#f0c141" d="M 191.5,498.5 C 190.127,498.657 188.793,498.49 187.5,498C 186.226,497.023 186.226,496.189 187.5,495.5C 188.404,494.791 188.737,493.791 188.5,492.5C 189.675,492.719 190.675,492.386 191.5,491.5C 196.289,484.906 201.456,478.573 207,472.5C 207.808,470.421 207.641,468.421 206.5,466.5C 201.59,472.923 196.424,479.256 191,485.5C 190.803,487.861 189.636,489.528 187.5,490.5C 186.913,489.767 186.913,488.767 187.5,487.5C 188.239,481.518 188.905,475.518 189.5,469.5C 187.813,463.961 187.313,458.294 188,452.5C 191.285,448.597 195.118,445.263 199.5,442.5C 200.339,439.326 202.005,436.659 204.5,434.5C 207.914,432.462 211.58,430.962 215.5,430C 225.469,427.625 232.136,431.125 235.5,440.5C 234,442.833 232.5,445.167 231,447.5C 226.95,450.893 222.95,454.226 219,457.5C 218.333,460.833 218.333,464.167 219,467.5C 221.019,471.191 222.686,474.858 224,478.5C 221.684,480.47 219.851,482.804 218.5,485.5C 212.554,486.898 206.554,488.064 200.5,489C 196.506,491.308 193.506,494.475 191.5,498.5 Z"/></g>
<g><path style="opacity:1" fill="#e01b21" d="M 291.5,431.5 C 293.075,433.645 294.409,435.978 295.5,438.5C 294.617,444.819 292.784,450.819 290,456.5C 285.205,462.313 279.039,464.98 271.5,464.5C 271.5,463.5 271.5,462.5 271.5,461.5C 274.562,461.156 277.562,460.489 280.5,459.5C 281.035,457.729 281.869,457.396 283,458.5C 286.208,456.97 288.708,454.637 290.5,451.5C 291.769,449.305 291.769,447.139 290.5,445C 292.156,443.203 293.156,441.036 293.5,438.5C 292.054,436.382 291.387,434.049 291.5,431.5 Z"/></g>
<g><path style="opacity:1" fill="#d82829" d="M 251.5,485.5 C 254.145,486.491 256.478,487.991 258.5,490C 267.08,490.953 273.914,494.787 279,501.5C 279.796,504.039 279.629,506.372 278.5,508.5C 277.833,509.5 277.167,510.5 276.5,511.5C 275.234,508.699 274.401,505.699 274,502.5C 273.667,502.167 273.333,501.833 273,501.5C 273.263,502.951 273.096,504.284 272.5,505.5C 271.833,503.5 271.167,501.5 270.5,499.5C 269.817,499.863 269.15,500.196 268.5,500.5C 269.141,495.705 267.307,494.039 263,495.5C 262.51,496.793 262.343,498.127 262.5,499.5C 261.391,499.557 260.391,499.89 259.5,500.5C 259.178,498.278 259.845,496.444 261.5,495C 260.207,494.51 258.873,494.343 257.5,494.5C 257.5,497.167 257.5,499.833 257.5,502.5C 256.833,502.5 256.167,502.5 255.5,502.5C 252.74,505.321 250.24,504.987 248,501.5C 247.617,502.056 247.117,502.389 246.5,502.5C 247.545,499.886 248.045,497.22 248,494.5C 243.901,494.582 239.901,494.915 236,495.5C 234.1,500.913 235.933,503.247 241.5,502.5C 241.231,500.571 241.731,498.905 243,497.5C 243.711,499.899 243.544,502.232 242.5,504.5C 242.833,504.833 243.167,505.167 243.5,505.5C 244.518,504.807 245.518,504.141 246.5,503.5C 246.5,504.5 246.5,505.5 246.5,506.5C 239.709,504.444 232.709,503.11 225.5,502.5C 225.663,500.143 225.497,497.81 225,495.5C 224.617,494.944 224.117,494.611 223.5,494.5C 225.635,492.631 228.302,491.964 231.5,492.5C 231.884,488.058 232.884,487.724 234.5,491.5C 237.842,493.499 241.009,493.499 244,491.5C 250.532,493.933 253.032,491.933 251.5,485.5 Z"/></g>
<g><path style="opacity:1" fill="#80a152" d="M 105.5,463.5 C 106.675,463.281 107.675,463.614 108.5,464.5C 110.227,467.287 111.394,470.287 112,473.5C 113,474.5 114,475.5 115,476.5C 115.903,480.242 117.07,483.908 118.5,487.5C 121.428,488.484 124.428,488.817 127.5,488.5C 127.5,489.5 127.5,490.5 127.5,491.5C 131.915,491.305 136.249,491.805 140.5,493C 141.597,495.3 143.431,496.467 146,496.5C 153.141,495.423 160.307,495.256 167.5,496C 170.171,497.903 173.171,498.736 176.5,498.5C 176.167,499.167 175.833,499.833 175.5,500.5C 171.654,499.667 167.821,498.667 164,497.5C 160.6,499.02 157.433,498.687 154.5,496.5C 150.958,498.091 147.291,498.591 143.5,498C 138.566,494.137 132.899,492.137 126.5,492C 123.537,488.713 120.703,488.88 118,492.5C 116.793,488.133 115.459,483.8 114,479.5C 113.623,478.058 112.79,477.058 111.5,476.5C 109.243,472.317 107.243,467.984 105.5,463.5 Z"/></g>
<g><path style="opacity:1" fill="#f2cfb2" d="M 259.5,500.5 C 259.5,501.833 258.833,502.5 257.5,502.5C 257.5,499.833 257.5,497.167 257.5,494.5C 258.873,494.343 260.207,494.51 261.5,495C 259.845,496.444 259.178,498.278 259.5,500.5 Z"/></g>
<g><path style="opacity:1" fill="#dcc67c" d="M 187.5,495.5 C 187.719,494.325 187.386,493.325 186.5,492.5C 184.967,494.289 183.967,496.289 183.5,498.5C 184.5,498.5 185.5,498.5 186.5,498.5C 186.5,500.5 186.5,502.5 186.5,504.5C 183.624,504.208 180.957,504.208 178.5,504.5C 178.167,504.5 177.833,504.5 177.5,504.5C 177.5,503.5 177.5,502.5 177.5,501.5C 180.416,496.576 183.749,491.91 187.5,487.5C 186.913,488.767 186.913,489.767 187.5,490.5C 189.636,489.528 190.803,487.861 191,485.5C 196.424,479.256 201.59,472.923 206.5,466.5C 207.641,468.421 207.808,470.421 207,472.5C 201.456,478.573 196.289,484.906 191.5,491.5C 190.675,492.386 189.675,492.719 188.5,492.5C 188.737,493.791 188.404,494.791 187.5,495.5 Z"/></g>
<g><path style="opacity:1" fill="#f9bfc5" d="M 232.5,491.5 C 233.482,494.962 233.815,498.629 233.5,502.5C 227.933,503.247 226.1,500.913 228,495.5C 229.067,494.809 230.234,494.309 231.5,494C 232.252,493.329 232.586,492.496 232.5,491.5 Z"/></g>
<g><path style="opacity:1" fill="#b72d1f" d="M 229.5,496.5 C 230.586,496.62 231.253,497.287 231.5,498.5C 231.167,499.167 230.833,499.833 230.5,500.5C 229.571,499.311 229.238,497.978 229.5,496.5 Z"/></g>
<g><path style="opacity:1" fill="#f9bfc9" d="M 255.5,502.5 C 249.633,502.794 247.967,500.128 250.5,494.5C 251.466,496.396 251.799,498.396 251.5,500.5C 252.5,500.5 253.5,500.5 254.5,500.5C 254.338,498.473 254.505,496.473 255,494.5C 255.497,497.146 255.664,499.813 255.5,502.5 Z"/></g>
<g><path style="opacity:1" fill="#f2c5b9" d="M 222.5,494.5 C 222.833,494.5 223.167,494.5 223.5,494.5C 224.117,494.611 224.617,494.944 225,495.5C 225.497,497.81 225.663,500.143 225.5,502.5C 224.208,500.745 223.208,498.745 222.5,496.5C 221.833,498.5 221.167,500.5 220.5,502.5C 219.52,499.914 219.187,497.247 219.5,494.5C 220.5,494.5 221.5,494.5 222.5,494.5 Z"/></g>
<g><path style="opacity:1" fill="#ecb0b2" d="M 246.5,502.5 C 246.5,502.833 246.5,503.167 246.5,503.5C 245.518,504.141 244.518,504.807 243.5,505.5C 243.167,505.167 242.833,504.833 242.5,504.5C 243.544,502.232 243.711,499.899 243,497.5C 241.731,498.905 241.231,500.571 241.5,502.5C 235.933,503.247 234.1,500.913 236,495.5C 239.901,494.915 243.901,494.582 248,494.5C 248.045,497.22 247.545,499.886 246.5,502.5 Z"/></g>
<g><path style="opacity:1" fill="#f1a8a5" d="M 268.5,500.5 C 267.341,502.377 265.674,502.877 263.5,502C 262.748,501.329 262.414,500.496 262.5,499.5C 262.343,498.127 262.51,496.793 263,495.5C 267.307,494.039 269.141,495.705 268.5,500.5 Z"/></g>
<g><path style="opacity:1" fill="#de1f23" d="M 225.5,480.5 C 225.193,483.635 223.86,486.302 221.5,488.5C 222.167,489.167 222.833,489.833 223.5,490.5C 220.833,490.833 218.167,491.167 215.5,491.5C 217.764,492.869 220.097,493.869 222.5,494.5C 221.5,494.5 220.5,494.5 219.5,494.5C 219.187,497.247 219.52,499.914 220.5,502.5C 221.167,500.5 221.833,498.5 222.5,496.5C 223.208,498.745 224.208,500.745 225.5,502.5C 225.714,504.144 225.38,505.644 224.5,507C 226.635,508.381 228.968,509.381 231.5,510C 231.167,510.333 230.833,510.667 230.5,511C 233.855,512.242 235.189,514.409 234.5,517.5C 237.447,518.321 240.447,518.821 243.5,519C 245.324,519.66 246.657,520.827 247.5,522.5C 243.192,520.203 238.526,519.036 233.5,519C 232.76,517.215 232.093,515.382 231.5,513.5C 226.256,511.475 221.256,508.975 216.5,506C 210.167,505.667 203.833,505.333 197.5,505C 195.973,503.968 194.64,502.801 193.5,501.5C 195.132,496.817 198.132,493.15 202.5,490.5C 203.107,490.624 203.44,490.957 203.5,491.5C 203.177,495.226 203.511,498.893 204.5,502.5C 205.605,495.943 206.605,495.943 207.5,502.5C 211.167,502.5 214.833,502.5 218.5,502.5C 218.768,499.881 218.435,497.381 217.5,495C 211.852,494.941 211.519,495.608 216.5,497C 214.919,497.707 213.419,498.54 212,499.5C 211.882,496.629 211.216,493.962 210,491.5C 209.396,497.451 208.229,497.784 206.5,492.5C 206.414,491.504 206.748,490.671 207.5,490C 211.5,489.333 215.5,488.667 219.5,488C 221.364,485.312 223.364,482.812 225.5,480.5 Z"/></g>
<g><path style="opacity:1" fill="#f1c6c9" d="M 203.5,491.5 C 204.609,491.557 205.609,491.89 206.5,492.5C 208.229,497.784 209.396,497.451 210,491.5C 211.216,493.962 211.882,496.629 212,499.5C 213.419,498.54 214.919,497.707 216.5,497C 211.519,495.608 211.852,494.941 217.5,495C 218.435,497.381 218.768,499.881 218.5,502.5C 214.833,502.5 211.167,502.5 207.5,502.5C 206.605,495.943 205.605,495.943 204.5,502.5C 203.511,498.893 203.177,495.226 203.5,491.5 Z"/></g>
<g><path style="opacity:1" fill="#020500" d="M 149.5,504.5 C 151.337,504.639 151.67,505.306 150.5,506.5C 149.702,506.043 149.369,505.376 149.5,504.5 Z"/></g>
<g><path style="opacity:1" fill="#f70c12" d="M 262.5,499.5 C 262.414,500.496 262.748,501.329 263.5,502C 265.674,502.877 267.341,502.377 268.5,500.5C 269.15,500.196 269.817,499.863 270.5,499.5C 271.167,501.5 271.833,503.5 272.5,505.5C 273.096,504.284 273.263,502.951 273,501.5C 273.333,501.833 273.667,502.167 274,502.5C 274.401,505.699 275.234,508.699 276.5,511.5C 275.507,519.984 275.174,528.651 275.5,537.5C 272.827,540.506 270.16,543.506 267.5,546.5C 264.243,542.959 260.41,540.292 256,538.5C 255.503,536.19 255.337,533.857 255.5,531.5C 254.308,527.302 251.642,524.302 247.5,522.5C 246.657,520.827 245.324,519.66 243.5,519C 240.447,518.821 237.447,518.321 234.5,517.5C 235.189,514.409 233.855,512.242 230.5,511C 230.833,510.667 231.167,510.333 231.5,510C 228.968,509.381 226.635,508.381 224.5,507C 225.38,505.644 225.714,504.144 225.5,502.5C 232.709,503.11 239.709,504.444 246.5,506.5C 246.5,505.5 246.5,504.5 246.5,503.5C 246.5,503.167 246.5,502.833 246.5,502.5C 247.117,502.389 247.617,502.056 248,501.5C 250.24,504.987 252.74,505.321 255.5,502.5C 256.167,502.5 256.833,502.5 257.5,502.5C 258.833,502.5 259.5,501.833 259.5,500.5C 260.391,499.89 261.391,499.557 262.5,499.5 Z"/></g>
<g><path style="opacity:1" fill="#040504" d="M 132.5,504.5 C 134.176,505.183 134.843,506.517 134.5,508.5C 135.5,508.5 136.5,508.5 137.5,508.5C 137.238,507.022 137.571,505.689 138.5,504.5C 139.833,507.833 139.833,511.167 138.5,514.5C 137.548,512.955 137.215,511.288 137.5,509.5C 136.5,509.5 135.5,509.5 134.5,509.5C 134.785,511.288 134.452,512.955 133.5,514.5C 132.513,511.232 132.18,507.898 132.5,504.5 Z"/></g>
<g><path style="opacity:1" fill="#0d0d0d" d="M 149.5,507.5 C 150.748,508.334 151.415,509.667 151.5,511.5C 151.782,514.042 150.949,516.042 149,517.5C 148.5,517.333 148,517.167 147.5,517C 149.344,514.196 150.011,511.03 149.5,507.5 Z"/></g>
<g><path style="opacity:1" fill="#010201" d="M 145.5,508.5 C 147.765,509.94 147.932,511.607 146,513.5C 145.506,511.866 145.34,510.199 145.5,508.5 Z"/></g>
<g><path style="opacity:1" fill="#020205" d="M 161.5,507.5 C 162.725,508.152 163.392,509.319 163.5,511C 163.167,512.167 162.833,513.333 162.5,514.5C 161.526,512.257 161.192,509.924 161.5,507.5 Z"/></g>
<g><path style="opacity:1" fill="#151616" d="M 179.5,508.5 C 180.189,507.226 181.023,507.226 182,508.5C 182.808,510.579 182.641,512.579 181.5,514.5C 180.831,512.369 180.165,510.369 179.5,508.5 Z"/></g>
<g><path style="opacity:1" fill="#030402" d="M 142.5,508.5 C 143.613,509.946 143.78,511.613 143,513.5C 142.626,512.584 142.126,511.75 141.5,511C 142.252,510.329 142.586,509.496 142.5,508.5 Z"/></g>
<g><path style="opacity:1" fill="#161418" d="M 171.5,513.5 C 169.102,512.118 168.935,510.451 171,508.5C 171.494,510.134 171.66,511.801 171.5,513.5 Z"/></g>
<g><path style="opacity:1" fill="#040307" d="M 177.5,504.5 C 177.833,504.5 178.167,504.5 178.5,504.5C 178.82,507.898 178.487,511.232 177.5,514.5C 176.194,511.02 176.194,507.687 177.5,504.5 Z"/></g>
<g><path style="opacity:1" fill="#0d0c0e" d="M 186.5,508.5 C 187.542,507.209 188.708,507.209 190,508.5C 190.808,510.579 190.641,512.579 189.5,514.5C 189.036,512.025 188.036,510.025 186.5,508.5 Z"/></g>
<g><path style="opacity:1" fill="#101012" d="M 155.5,508.5 C 156.542,507.209 157.708,507.209 159,508.5C 159.808,510.579 159.641,512.579 158.5,514.5C 158.036,512.025 157.036,510.025 155.5,508.5 Z"/></g>
<g><path style="opacity:1" fill="#0f0f10" d="M 164.5,508.5 C 165.189,507.226 166.023,507.226 167,508.5C 167.808,510.579 167.641,512.579 166.5,514.5C 165.831,512.369 165.165,510.369 164.5,508.5 Z"/></g>
<g><path style="opacity:1" fill="#20201f" d="M 154.5,510.5 C 155.249,511.531 155.915,512.698 156.5,514C 153.668,514.174 153.001,513.007 154.5,510.5 Z"/></g>
<g><path style="opacity:1" fill="#1e1e1e" d="M 185.5,510.5 C 186.249,511.531 186.915,512.698 187.5,514C 184.668,514.174 184.001,513.007 185.5,510.5 Z"/></g>
<g><path style="opacity:1" fill="#2a2a2a" d="M 171.5,513.5 C 172.847,512.972 174.181,512.805 175.5,513C 174.182,514.63 172.849,514.797 171.5,513.5 Z"/></g>
<g><path style="opacity:1" fill="#b92432" d="M 278.5,508.5 C 277.011,518.211 276.011,527.878 275.5,537.5C 275.174,528.651 275.507,519.984 276.5,511.5C 277.167,510.5 277.833,509.5 278.5,508.5 Z"/></g>
<g><path style="opacity:1" fill="#ba232e" d="M 247.5,522.5 C 251.642,524.302 254.308,527.302 255.5,531.5C 252.862,528.526 250.195,525.526 247.5,522.5 Z"/></g>
</svg>
